<svg width="24" height="24" viewBox="0 0 24 24" fill="none" xmlns="http://www.w3.org/2000/svg">
<path d="M12 20C10.5395 19.0049 8.84865 18.3707 7.07568 18.1573C5.81821 17.91 4.5371 17.7932 3.25405 17.8088C3.08988 17.8102 2.92705 17.7801 2.77496 17.7202C2.62288 17.6604 2.48454 17.5719 2.36795 17.4601C2.25136 17.3482 2.15881 17.2151 2.09566 17.0684C2.03251 16.9217 1.99999 16.7643 2 16.6054L2.0227 5.20681C2.02201 4.90097 2.14166 4.60634 2.35733 4.38282C2.57299 4.1593 2.8685 4.02364 3.18378 4.00343C4.48988 3.9783 5.79492 4.09129 7.07568 4.34038C8.84673 4.56154 10.5362 5.19413 12 6.18416M12 20V6.18416M12 20C13.4605 19.0049 15.1514 18.3707 16.9243 18.1573C18.1818 17.91 19.4629 17.7932 20.7459 17.8088C20.9101 17.8102 21.0729 17.7801 21.225 17.7202C21.3771 17.6604 21.5155 17.5719 21.632 17.4601C21.7486 17.3482 21.8412 17.2151 21.9043 17.0684C21.9675 16.9217 22 16.7643 22 16.6054L21.9762 5.20681C21.9769 4.90114 21.8574 4.60666 21.642 4.38316C21.4265 4.15966 21.1313 4.0239 20.8162 4.00343C19.5101 3.9783 18.2051 4.09129 16.9243 4.34038C15.1533 4.56154 13.4638 5.19413 12 6.18416" stroke="#155DFC" stroke-linecap="round" stroke-linejoin="round"/>
</svg>
