<svg width="50px" height="50px" viewBox="0 0 50 50" fill="none" xmlns="http://www.w3.org/2000/svg" transform="rotate(0) scale(1, 1)">
<path d="M29.8 49V15.4M29.8 49H15.4C8.6128 49 5.2168 49 3.1096 46.8904C1 44.7832 1 41.3872 1 34.6V15.4C1 8.6128 1 5.2168 3.1096 3.1096C5.2168 1 8.6128 1 15.4 1C22.1872 1 25.5832 1 27.6904 3.1096C29.8 5.2168 29.8 8.6128 29.8 15.4M29.8 49H39.4C43.9264 49 46.1872 49 47.5936 47.5936C49 46.1872 49 43.9264 49 39.4V25C49 20.4736 49 18.2128 47.5936 16.8064C46.1872 15.4 43.9264 15.4 39.4 15.4H29.8M11.8 22.6H9.4M21.4 22.6H19M11.8 13H9.4M11.8 32.2H9.4M21.4 13H19M21.4 32.2H19M40.6 32.2H38.2M40.6 22.6H38.2" stroke="#155dfc" stroke-width="2" stroke-linecap="round"/>
</svg>