<svg width="56" height="56" viewBox="0 0 56 56" fill="none" xmlns="http://www.w3.org/2000/svg">
<path d="M19.833 9.33325H13.9997C12.762 9.33325 11.575 9.82492 10.6998 10.7001C9.82467 11.5753 9.33301 12.7622 9.33301 13.9999V46.6666C9.33301 47.9043 9.82467 49.0912 10.6998 49.9664C11.575 50.8416 12.762 51.3333 13.9997 51.3333H27.9997M36.1663 9.33325H41.9997C43.2374 9.33325 44.4243 9.82492 45.2995 10.7001C46.1747 11.5753 46.6663 12.7622 46.6663 13.9999V34.9999" stroke="#575757" stroke-width="3" stroke-linecap="round"/>
<path d="M18.666 14.9333V10.4999C18.666 10.1905 18.7889 9.89375 19.0077 9.67496C19.2265 9.45617 19.5233 9.33325 19.8327 9.33325C20.4767 9.33325 21.0087 8.81058 21.1207 8.17592C21.466 6.18792 22.8053 2.33325 27.9993 2.33325C33.1933 2.33325 34.5327 6.18792 34.878 8.17592C34.99 8.81058 35.522 9.33325 36.166 9.33325C36.4754 9.33325 36.7722 9.45617 36.991 9.67496C37.2098 9.89375 37.3327 10.1905 37.3327 10.4999V14.9333C37.3327 15.3046 37.1852 15.6607 36.9226 15.9232C36.6601 16.1858 36.304 16.3333 35.9327 16.3333H20.066C19.6947 16.3333 19.3386 16.1858 19.0761 15.9232C18.8135 15.6607 18.666 15.3046 18.666 14.9333Z" stroke="#575757" stroke-width="3" stroke-linecap="round"/>
<path d="M36.166 47.8333L40.8327 52.4999L52.4994 40.8333" stroke="#575757" stroke-width="3" stroke-linecap="round" stroke-linejoin="round"/>
</svg>
