<svg width="24" height="24" viewBox="0 0 24 24" fill="none" xmlns="http://www.w3.org/2000/svg">
<path d="M14.7992 4H9.99922C9.55739 4 9.19922 4.35817 9.19922 4.8V6.4C9.19922 6.84183 9.55739 7.2 9.99922 7.2H14.7992C15.241 7.2 15.5992 6.84183 15.5992 6.4V4.8C15.5992 4.35817 15.241 4 14.7992 4Z" stroke="#155DFC" stroke-linecap="round" stroke-linejoin="round"/>
<path d="M15.6 5.60001H17.2C17.6243 5.60001 18.0313 5.76858 18.3314 6.06864C18.6314 6.36869 18.8 6.77566 18.8 7.20001V18.4C18.8 18.8244 18.6314 19.2313 18.3314 19.5314C18.0313 19.8314 17.6243 20 17.2 20H7.6C7.17565 20 6.76869 19.8314 6.46863 19.5314C6.16857 19.2313 6 18.8244 6 18.4V7.20001C6 6.77566 6.16857 6.36869 6.46863 6.06864C6.76869 5.76858 7.17565 5.60001 7.6 5.60001H9.2" stroke="#155DFC" stroke-linecap="round" stroke-linejoin="round"/>
<path d="M10 13.6L11.6 15.2L14.8 12" stroke="#155DFC" stroke-linecap="round" stroke-linejoin="round"/>
</svg>
