<svg width="24" height="24" viewBox="0 0 24 24" fill="none" xmlns="http://www.w3.org/2000/svg">
<path d="M12 21.5C14.5196 21.5 16.9359 20.4991 18.7175 18.7175C20.4991 16.9359 21.5 14.5196 21.5 12C21.5 9.48044 20.4991 7.06408 18.7175 5.28249C16.9359 3.50089 14.5196 2.5 12 2.5C9.48044 2.5 7.06408 3.50089 5.28249 5.28249C3.50089 7.06408 2.5 9.48044 2.5 12C2.5 14.5196 3.50089 16.9359 5.28249 18.7175C7.06408 20.4991 9.48044 21.5 12 21.5Z" stroke="#155DFC" stroke-linecap="round" stroke-linejoin="round"/>
<path d="M7.77734 16.222L9.71934 10.385C9.77256 10.2294 9.86125 10.0883 9.9784 9.97288C10.0956 9.85746 10.238 9.77089 10.3943 9.72L16.2213 7.778L14.2793 13.615C14.2271 13.7695 14.14 13.9099 14.0246 14.0253C13.9093 14.1406 13.7689 14.2278 13.6143 14.28L7.77734 16.222Z" stroke="#155DFC" stroke-linecap="round" stroke-linejoin="round"/>
</svg>
