<svg width="56" height="56" viewBox="0 0 56 56" fill="none" xmlns="http://www.w3.org/2000/svg">
<path d="M9.33345 9.33341C9.33345 8.09574 9.82512 6.90875 10.7003 6.03358C11.5755 5.15841 12.7624 4.66675 14.0001 4.66675H28.4015C29.639 4.66701 30.8258 5.15885 31.7008 6.03408L45.2994 19.6327C46.1747 20.5077 46.6665 21.6945 46.6668 22.9321V46.6667C46.6668 47.9044 46.1751 49.0914 45.2999 49.9666C44.4248 50.8417 43.2378 51.3334 42.0001 51.3334H32.6248C32.5 50.4607 32.0946 49.6523 31.4698 49.0304L30.2751 47.8334H42.0001C42.3095 47.8334 42.6063 47.7105 42.8251 47.4917C43.0439 47.2729 43.1668 46.9762 43.1668 46.6667V23.3334H32.6668C31.4291 23.3334 30.2421 22.8417 29.367 21.9666C28.4918 21.0914 28.0001 19.9044 28.0001 18.6667V8.16675H14.0001C13.6907 8.16675 13.394 8.28966 13.1752 8.50846C12.9564 8.72725 12.8335 9.024 12.8335 9.33341V25.8767C11.6155 26.1024 10.4366 26.5032 9.33345 27.0667V9.33341ZM32.6668 19.8334H40.5534L31.5001 10.7801V18.6667C31.5001 18.9762 31.623 19.2729 31.8418 19.4917C32.0606 19.7105 32.3574 19.8334 32.6668 19.8334ZM15.1668 49.0001C17.3468 49.0001 19.4728 48.3216 21.2498 47.0587L27.3468 53.1534C27.507 53.3254 27.7002 53.4633 27.9149 53.5589C28.1295 53.6545 28.3613 53.706 28.5962 53.7101C28.8312 53.7143 29.0646 53.671 29.2825 53.583C29.5004 53.495 29.6984 53.364 29.8645 53.1978C30.0307 53.0317 30.1617 52.8337 30.2497 52.6158C30.3378 52.3979 30.381 52.1645 30.3768 51.9295C30.3727 51.6946 30.3213 51.4628 30.2256 51.2482C30.13 51.0335 29.9921 50.8403 29.8201 50.6801L23.7255 44.5831C25.0891 42.6645 25.7685 40.3434 25.6547 37.9923C25.5409 35.6413 24.6404 33.3967 23.0978 31.6188C21.5552 29.8409 19.46 28.6329 17.1485 28.1887C14.837 27.7445 12.4433 28.0899 10.3516 29.1694C8.25989 30.2489 6.59159 31.9999 5.61447 34.1413C4.63735 36.2827 4.40809 38.6903 4.96349 40.9777C5.51889 43.265 6.82675 45.2994 8.6771 46.7542C10.5275 48.2091 12.813 49 15.1668 49.0001ZM15.1668 45.5001C13.3103 45.5001 11.5298 44.7626 10.217 43.4498C8.90428 42.1371 8.16679 40.3566 8.16679 38.5001C8.16679 36.6436 8.90428 34.8631 10.217 33.5503C11.5298 32.2376 13.3103 31.5001 15.1668 31.5001C17.0233 31.5001 18.8038 32.2376 20.1165 33.5503C21.4293 34.8631 22.1668 36.6436 22.1668 38.5001C22.1668 40.3566 21.4293 42.1371 20.1165 43.4498C18.8038 44.7626 17.0233 45.5001 15.1668 45.5001Z" fill="#3E5468"/>
</svg>
