<svg width="64" height="64" viewBox="0 0 64 64" fill="none" xmlns="http://www.w3.org/2000/svg">
<g clip-path="url(#clip0_746_439)">
<path d="M57.8125 21.5C58.75 22.0208 59.6042 22.6562 60.375 23.4062C61.1458 24.1562 61.7917 24.9896 62.3125 25.9062C62.8333 26.8229 63.25 27.7917 63.5625 28.8125C63.875 29.8333 64.0208 30.8958 64 32H60C60 30.9167 59.7917 29.8854 59.375 28.9062C58.9583 27.9271 58.3854 27.0833 57.6562 26.375C56.9271 25.6667 56.0729 25.0938 55.0938 24.6562C54.1146 24.2188 53.0833 24 52 24C50.8958 24 49.8646 24.2083 48.9062 24.625C47.9479 25.0417 47.1042 25.6146 46.375 26.3438C45.6458 27.0729 45.0729 27.9271 44.6562 28.9062C44.2396 29.8854 44.0208 30.9167 44 32C44 33.8958 43.5729 35.6979 42.7188 37.4062C41.8646 39.1146 40.6667 40.5312 39.125 41.6562C40.4792 42.3438 41.6979 43.1875 42.7812 44.1875C43.8646 45.1875 44.8021 46.3125 45.5938 47.5625C46.3854 48.8125 46.9792 50.1458 47.375 51.5625C47.7708 52.9792 47.9792 54.4583 48 56H44C44 54.3542 43.6875 52.8021 43.0625 51.3438C42.4375 49.8854 41.5729 48.6146 40.4688 47.5312C39.3646 46.4479 38.0938 45.5938 36.6562 44.9688C35.2188 44.3438 33.6667 44.0208 32 44C30.3542 44 28.8021 44.3125 27.3438 44.9375C25.8854 45.5625 24.6146 46.4271 23.5312 47.5312C22.4479 48.6354 21.5938 49.9062 20.9688 51.3438C20.3438 52.7812 20.0208 54.3333 20 56H16C16 54.4792 16.2083 53.0104 16.625 51.5938C17.0417 50.1771 17.6354 48.8438 18.4062 47.5938C19.1771 46.3438 20.1042 45.2188 21.1875 44.2188C22.2708 43.2188 23.5 42.3646 24.875 41.6562C23.3542 40.5312 22.1667 39.1146 21.3125 37.4062C20.4583 35.6979 20.0208 33.8958 20 32C20 30.9167 19.7917 29.8854 19.375 28.9062C18.9583 27.9271 18.3854 27.0833 17.6562 26.375C16.9271 25.6667 16.0729 25.0938 15.0938 24.6562C14.1146 24.2188 13.0833 24 12 24C10.8958 24 9.86458 24.2083 8.90625 24.625C7.94792 25.0417 7.10417 25.6146 6.375 26.3438C5.64583 27.0729 5.07292 27.9271 4.65625 28.9062C4.23958 29.8854 4.02083 30.9167 4 32H0C0 30.9167 0.145833 29.8646 0.4375 28.8438C0.729167 27.8229 1.13542 26.8542 1.65625 25.9375C2.17708 25.0208 2.83333 24.1875 3.625 23.4375C4.41667 22.6875 5.27083 22.0417 6.1875 21.5C5.5 20.7708 4.96875 19.9271 4.59375 18.9688C4.21875 18.0104 4.02083 17.0208 4 16C4 14.9167 4.20833 13.8854 4.625 12.9062C5.04167 11.9271 5.61458 11.0833 6.34375 10.375C7.07292 9.66667 7.91667 9.09375 8.875 8.65625C9.83333 8.21875 10.875 8 12 8C13.0833 8 14.1146 8.20833 15.0938 8.625C16.0729 9.04167 16.9167 9.61458 17.625 10.3438C18.3333 11.0729 18.9062 11.9271 19.3438 12.9062C19.7812 13.8854 20 14.9167 20 16C20 17.0208 19.8125 18.0104 19.4375 18.9688C19.0625 19.9271 18.5208 20.7708 17.8125 21.5C19.5208 22.4375 20.9167 23.7292 22 25.375C23.125 23.7083 24.5625 22.3958 26.3125 21.4375C28.0625 20.4792 29.9583 20 32 20C34.0208 20 35.9062 20.4792 37.6562 21.4375C39.4062 22.3958 40.8542 23.7083 42 25.375C43.0833 23.7292 44.4792 22.4375 46.1875 21.5C45.5 20.7708 44.9688 19.9271 44.5938 18.9688C44.2188 18.0104 44.0208 17.0208 44 16C44 14.9167 44.2083 13.8854 44.625 12.9062C45.0417 11.9271 45.6146 11.0833 46.3438 10.375C47.0729 9.66667 47.9167 9.09375 48.875 8.65625C49.8333 8.21875 50.875 8 52 8C53.0833 8 54.1146 8.20833 55.0938 8.625C56.0729 9.04167 56.9167 9.61458 57.625 10.3438C58.3333 11.0729 58.9062 11.9271 59.3438 12.9062C59.7812 13.8854 60 14.9167 60 16C60 17.0208 59.8125 18.0104 59.4375 18.9688C59.0625 19.9271 58.5208 20.7708 57.8125 21.5ZM8 16C8 16.5625 8.10417 17.0833 8.3125 17.5625C8.52083 18.0417 8.80208 18.4583 9.15625 18.8125C9.51042 19.1667 9.9375 19.4583 10.4375 19.6875C10.9375 19.9167 11.4583 20.0208 12 20C12.5625 20 13.0833 19.8958 13.5625 19.6875C14.0417 19.4792 14.4583 19.1979 14.8125 18.8438C15.1667 18.4896 15.4583 18.0625 15.6875 17.5625C15.9167 17.0625 16.0208 16.5417 16 16C16 15.4375 15.8958 14.9167 15.6875 14.4375C15.4792 13.9583 15.1979 13.5417 14.8438 13.1875C14.4896 12.8333 14.0625 12.5417 13.5625 12.3125C13.0625 12.0833 12.5417 11.9792 12 12C11.4375 12 10.9167 12.1042 10.4375 12.3125C9.95833 12.5208 9.54167 12.8021 9.1875 13.1562C8.83333 13.5104 8.54167 13.9375 8.3125 14.4375C8.08333 14.9375 7.97917 15.4583 8 16ZM32 40C33.0833 40 34.1146 39.7917 35.0938 39.375C36.0729 38.9583 36.9167 38.3854 37.625 37.6562C38.3333 36.9271 38.9062 36.0833 39.3438 35.125C39.7812 34.1667 40 33.125 40 32C40 30.9167 39.7917 29.8854 39.375 28.9062C38.9583 27.9271 38.3854 27.0833 37.6562 26.375C36.9271 25.6667 36.0729 25.0938 35.0938 24.6562C34.1146 24.2188 33.0833 24 32 24C30.8958 24 29.8646 24.2083 28.9062 24.625C27.9479 25.0417 27.1042 25.6146 26.375 26.3438C25.6458 27.0729 25.0729 27.9271 24.6562 28.9062C24.2396 29.8854 24.0208 30.9167 24 32C24 33.1042 24.2083 34.1354 24.625 35.0938C25.0417 36.0521 25.6146 36.8958 26.3438 37.625C27.0729 38.3542 27.9167 38.9271 28.875 39.3438C29.8333 39.7604 30.875 39.9792 32 40ZM48 16C48 16.5625 48.1042 17.0833 48.3125 17.5625C48.5208 18.0417 48.8021 18.4583 49.1562 18.8125C49.5104 19.1667 49.9375 19.4583 50.4375 19.6875C50.9375 19.9167 51.4583 20.0208 52 20C52.5625 20 53.0833 19.8958 53.5625 19.6875C54.0417 19.4792 54.4583 19.1979 54.8125 18.8438C55.1667 18.4896 55.4583 18.0625 55.6875 17.5625C55.9167 17.0625 56.0208 16.5417 56 16C56 15.4375 55.8958 14.9167 55.6875 14.4375C55.4792 13.9583 55.1979 13.5417 54.8438 13.1875C54.4896 12.8333 54.0625 12.5417 53.5625 12.3125C53.0625 12.0833 52.5417 11.9792 52 12C51.4375 12 50.9167 12.1042 50.4375 12.3125C49.9583 12.5208 49.5417 12.8021 49.1875 13.1562C48.8333 13.5104 48.5417 13.9375 48.3125 14.4375C48.0833 14.9375 47.9792 15.4583 48 16Z" fill="#155dfc"/>
</g>
<defs>
<clipPath id="clip0_746_439">
<rect width="64" height="64" fill="white"/>
</clipPath>
</defs>
</svg>
