<svg width="24" height="24" viewBox="0 0 24 24" fill="none" xmlns="http://www.w3.org/2000/svg">
<path d="M13.0488 0.219199C13.1705 0.103981 13.3253 0.0298908 13.4914 0.00738492C13.6575 -0.0151209 13.8264 0.0150942 13.9744 0.0937658C14.1224 0.172437 14.2419 0.295593 14.3161 0.445849C14.3903 0.596106 14.4155 0.765876 14.388 0.931199L12.9432 9.6H19.9992C20.1478 9.6 20.2934 9.64137 20.4198 9.71948C20.5462 9.79759 20.6483 9.90934 20.7148 10.0422C20.7812 10.1751 20.8093 10.3239 20.796 10.4718C20.7826 10.6198 20.7284 10.7611 20.6392 10.88L11.0392 23.68C10.9316 23.8231 10.7792 23.9261 10.6062 23.9723C10.4332 24.0185 10.2497 24.0053 10.0851 23.9349C9.92043 23.8645 9.78418 23.7409 9.69813 23.5838C9.61208 23.4268 9.58119 23.2455 9.61042 23.0688L11.0552 14.4H3.99922C3.85065 14.4 3.70502 14.3586 3.57863 14.2805C3.45225 14.2024 3.35012 14.0907 3.28368 13.9578C3.21723 13.8249 3.18911 13.6761 3.20245 13.5282C3.21579 13.3802 3.27008 13.2389 3.35922 13.12L12.9592 0.319999L13.0488 0.219199ZM5.59922 12.8H11.9992C12.1153 12.8001 12.2301 12.8254 12.3354 12.8742C12.4408 12.9231 12.5342 12.9943 12.6093 13.0829C12.6843 13.1715 12.7392 13.2754 12.7701 13.3874C12.8009 13.4993 12.8071 13.6166 12.788 13.7312L11.7272 20.0944L18.3992 11.2H11.9992C11.8831 11.1999 11.7684 11.1746 11.663 11.1258C11.5577 11.0769 11.4642 11.0057 11.3892 10.9171C11.3141 10.8285 11.2592 10.7246 11.2284 10.6126C11.1975 10.5007 11.1914 10.3834 11.2104 10.2688L12.2696 3.9056L5.59922 12.8Z" fill="#155DFC"/>
</svg>
