<svg width="24" height="24" viewBox="0 0 24 24" fill="none" xmlns="http://www.w3.org/2000/svg">
<path d="M17.4286 10.2857C17.4286 8.92174 16.8867 7.61364 15.9223 6.64917C14.9578 5.68469 13.6497 5.14286 12.2857 5.14286C10.9217 5.14286 9.61364 5.68469 8.64916 6.64917C7.68469 7.61364 7.14286 8.92174 7.14286 10.2857C7.14286 12.3946 8.83036 15.1446 12.2857 18.4393C15.7411 15.1429 17.4286 12.3929 17.4286 10.2857ZM12.2857 20C8.09524 16.1905 6 12.9524 6 10.2857C6 8.61864 6.66224 7.01984 7.84104 5.84104C9.01984 4.66224 10.6186 4 12.2857 4C13.9528 4 15.5516 4.66224 16.7304 5.84104C17.9092 7.01984 18.5714 8.61864 18.5714 10.2857C18.5714 12.9524 16.4762 16.1905 12.2857 20Z" fill="#155DFC"/>
<path d="M12.2849 12C12.7395 12 13.1756 11.8194 13.4971 11.4979C13.8186 11.1764 13.9992 10.7404 13.9992 10.2857C13.9992 9.83104 13.8186 9.39501 13.4971 9.07352C13.1756 8.75203 12.7395 8.57142 12.2849 8.57142C11.8302 8.57142 11.3942 8.75203 11.0727 9.07352C10.7512 9.39501 10.5706 9.83104 10.5706 10.2857C10.5706 10.7404 10.7512 11.1764 11.0727 11.4979C11.3942 11.8194 11.8302 12 12.2849 12ZM12.2849 13.1428C11.5271 13.1428 10.8004 12.8418 10.2646 12.306C9.72875 11.7702 9.42773 11.0435 9.42773 10.2857C9.42773 9.52794 9.72875 8.80121 10.2646 8.2654C10.8004 7.72958 11.5271 7.42856 12.2849 7.42856C13.0426 7.42856 13.7694 7.72958 14.3052 8.2654C14.841 8.80121 15.142 9.52794 15.142 10.2857C15.142 11.0435 14.841 11.7702 14.3052 12.306C13.7694 12.8418 13.0426 13.1428 12.2849 13.1428Z" fill="#155DFC"/>
</svg>
