<svg width="24" height="24" viewBox="0 0 24 24" fill="none" xmlns="http://www.w3.org/2000/svg">
<path d="M4 8.5712L9.79073 12.2944C10.5897 12.8072 10.9887 13.064 11.4201 13.164C11.8017 13.252 12.1991 13.252 12.5799 13.164C13.0113 13.064 13.4103 12.8072 14.2093 12.2944L20 8.5712M7.98216 18H16.0178C17.4116 18 18.1085 18 18.6411 17.7384C19.1091 17.5082 19.4895 17.141 19.7279 16.6896C20 16.176 20 15.504 20 14.16V9.84C20 8.496 20 7.824 19.7287 7.3104C19.4901 6.85883 19.1094 6.49169 18.6411 6.2616C18.1085 6 17.4116 6 16.0178 6H7.98216C6.58841 6 5.89153 6 5.35891 6.2616C4.89093 6.49183 4.51051 6.85895 4.27211 7.3104C4 7.824 4 8.496 4 9.84V14.16C4 15.504 4 16.176 4.27128 16.6896C4.5099 17.1412 4.89063 17.5083 5.35891 17.7384C5.89153 18 6.58841 18 7.98216 18Z" stroke="#155DFC" stroke-linecap="round" stroke-linejoin="round"/>
</svg>
