<svg width="59" height="60" viewBox="0 0 59 60" fill="none" xmlns="http://www.w3.org/2000/svg">
<path d="M49.7813 22.5C49.7833 19.0243 48.9215 15.6043 47.276 12.5579C45.6305 9.51148 43.2546 6.93737 40.369 5.07465C37.4834 3.21194 34.1817 2.12105 30.7705 1.90331C27.3594 1.68556 23.9495 2.34803 20.8575 3.82917C17.7655 5.31031 15.0917 7.56209 13.0845 10.3754C11.0773 13.1886 9.80182 16.4721 9.37644 19.9209C8.95107 23.3696 9.38964 26.8718 10.6514 30.102C11.9132 33.3323 13.9573 36.1858 16.5938 38.3977V56.25C16.5935 56.5698 16.6737 56.8843 16.8267 57.1637C16.9797 57.4431 17.2004 57.678 17.4679 57.8462C17.7353 58.0143 18.0406 58.1101 18.3547 58.1245C18.6689 58.1388 18.9814 58.0713 19.2626 57.9282L29.5 52.7344L39.7397 57.9399C39.9965 58.0646 40.278 58.1279 40.5625 58.125C41.0515 58.125 41.5205 57.9275 41.8662 57.5759C42.212 57.2242 42.4063 56.7473 42.4063 56.25V38.3977C44.7131 36.4656 46.5707 34.0381 47.8458 31.2894C49.1209 28.5408 49.7819 25.5392 49.7813 22.5ZM12.9063 22.5C12.9063 19.1625 13.8795 15.8999 15.7028 13.1248C17.5261 10.3497 20.1177 8.1868 23.1498 6.90957C26.182 5.63234 29.5184 5.29816 32.7373 5.94929C35.9562 6.60041 38.9129 8.2076 41.2336 10.5676C43.5542 12.9276 45.1346 15.9345 45.7749 19.2079C46.4152 22.4813 46.0866 25.8743 44.8306 28.9578C43.5747 32.0413 41.4478 34.6768 38.719 36.5311C35.9902 38.3853 32.7819 39.375 29.5 39.375C25.1006 39.3701 20.8827 37.5906 17.7718 34.427C14.661 31.2634 12.9111 26.974 12.9063 22.5ZM38.7188 53.2172L30.3228 48.9493C30.0666 48.8189 29.7841 48.751 29.4977 48.751C29.2113 48.751 28.9288 48.8189 28.6726 48.9493L20.2813 53.2172V40.868C23.1353 42.3515 26.2948 43.125 29.5 43.125C32.7052 43.125 35.8647 42.3515 38.7188 40.868V53.2172ZM29.5 35.625C32.0526 35.625 34.5479 34.8553 36.6703 33.4131C38.7928 31.9709 40.447 29.921 41.4238 27.5228C42.4007 25.1245 42.6563 22.4855 42.1583 19.9395C41.6603 17.3935 40.4311 15.0548 38.6261 13.2193C36.8211 11.3837 34.5215 10.1337 32.0179 9.62723C29.5143 9.1208 26.9193 9.38072 24.561 10.3741C22.2027 11.3675 20.187 13.0498 18.7688 15.2082C17.3507 17.3666 16.5938 19.9042 16.5938 22.5C16.5974 25.9799 17.9584 29.3161 20.3779 31.7767C22.7975 34.2373 26.0782 35.6213 29.5 35.625ZM29.5 13.125C31.3233 13.125 33.1056 13.6749 34.6217 14.705C36.1377 15.7352 37.3193 17.1993 38.017 18.9124C38.7148 20.6254 38.8973 22.5104 38.5416 24.329C38.1859 26.1476 37.3079 27.818 36.0186 29.1292C34.7294 30.4403 33.0868 31.3332 31.2985 31.6949C29.5102 32.0566 27.6566 31.871 25.9721 31.1614C24.2876 30.4518 22.8479 29.2502 21.8349 27.7085C20.8219 26.1668 20.2813 24.3542 20.2813 22.5C20.2813 20.0136 21.2525 17.6291 22.9814 15.8709C24.7102 14.1128 27.055 13.125 29.5 13.125Z" fill="#F0E4FF"/>
</svg>
