<svg width="24" height="24" viewBox="0 0 24 24" fill="none" xmlns="http://www.w3.org/2000/svg">
<path d="M18.1545 20H18.0499C5.96206 19.3046 4.24577 9.10154 4.00586 5.98769C3.98653 5.74559 4.01514 5.50205 4.09006 5.27102C4.16498 5.04 4.28473 4.82603 4.44245 4.64139C4.60017 4.45674 4.79276 4.30504 5.00919 4.19498C5.22562 4.08492 5.46163 4.01866 5.7037 4H9.09322C9.33962 3.99976 9.58042 4.07355 9.78443 4.21179C9.98843 4.35004 10.1462 4.54638 10.2374 4.77539L11.1725 7.07692C11.2625 7.30064 11.2848 7.5459 11.2367 7.78221C11.1886 8.01853 11.0721 8.23549 10.9018 8.40615L9.5915 9.72923C9.79617 10.8928 10.3532 11.9653 11.1872 12.8018C12.0211 13.6383 13.0918 14.1983 14.2544 14.4062L15.5893 13.0831C15.7625 12.9146 15.9814 12.8008 16.2188 12.7559C16.4562 12.711 16.7015 12.7371 16.9242 12.8308L19.2433 13.76C19.4688 13.8541 19.6612 14.0132 19.7959 14.217C19.9307 14.4209 20.0017 14.6602 20 14.9046V18.1538C20 18.6435 19.8055 19.1131 19.4594 19.4593C19.1133 19.8055 18.6439 20 18.1545 20ZM5.85133 5.23077C5.68818 5.23077 5.53172 5.2956 5.41635 5.41101C5.30099 5.52642 5.23618 5.68294 5.23618 5.84615V5.89539C5.51915 9.53846 7.33386 18.1538 18.1176 18.7692C18.1984 18.7742 18.2794 18.7632 18.356 18.7368C18.4325 18.7104 18.5031 18.6692 18.5637 18.6154C18.6243 18.5617 18.6736 18.4965 18.709 18.4236C18.7443 18.3508 18.7649 18.2716 18.7697 18.1908V14.9046L16.4505 13.9754L14.685 15.7292L14.3897 15.6923C9.03785 15.0215 8.31197 9.66769 8.31197 9.61231L8.27506 9.31692L10.0221 7.55077L9.09937 5.23077H5.85133Z" fill="#155DFC"/>
</svg>
