<svg width="56" height="56" viewBox="0 0 56 56" fill="none" xmlns="http://www.w3.org/2000/svg">
<g clip-path="url(#clip0_782_526)">
<path d="M51.0844 24.4535C51.0246 24.0409 50.8033 23.669 50.4693 23.4196C50.1353 23.1701 49.7159 23.0636 49.3033 23.1235C48.8908 23.1833 48.5189 23.4045 48.2694 23.7386C48.02 24.0726 47.9135 24.492 47.9733 24.9046C48.1308 25.8977 48.214 26.9012 48.2222 27.9068C48.215 31.9235 47.0117 35.8471 44.7657 39.1773C42.5198 42.5075 39.333 45.0934 35.6116 46.6053C31.8903 48.1172 27.803 48.4866 23.8709 47.6664C19.9387 46.8463 16.3399 44.8736 13.5333 42.0001H21.8711C22.2837 42.0001 22.6793 41.8362 22.971 41.5445C23.2628 41.2528 23.4266 40.8571 23.4266 40.4446C23.4266 40.032 23.2628 39.6363 22.971 39.3446C22.6793 39.0529 22.2837 38.889 21.8711 38.889H7.87109V52.889C7.87109 53.3016 8.03498 53.6972 8.32671 53.989C8.61843 54.2807 9.01409 54.4446 9.42665 54.4446C9.83921 54.4446 10.2349 54.2807 10.5266 53.989C10.8183 53.6972 10.9822 53.3016 10.9822 52.889V43.8668C14.3844 47.4977 18.8583 49.946 23.7505 50.8541C28.6428 51.7622 33.6972 51.0826 38.1759 48.9145C42.6545 46.7464 46.3228 43.2034 48.6451 38.8027C50.9674 34.4021 51.8221 29.3743 51.0844 24.4535Z" fill="#575757"/>
<path d="M46.7596 1.55551C46.3369 1.55101 45.9288 1.71058 45.6213 2.00068C45.3138 2.29077 45.1308 2.6888 45.1107 3.11107V12.18C41.9507 8.70014 37.8097 6.26036 33.2344 5.18264C28.6591 4.10492 23.8645 4.43993 19.4836 6.14345C15.1026 7.84698 11.3412 10.8389 8.69579 14.7244C6.0504 18.6098 4.6454 23.2062 4.66624 27.9066C4.66294 29.1989 4.767 30.4893 4.97736 31.7644C5.03699 32.1325 5.22685 32.4669 5.51237 32.7067C5.79789 32.9466 6.16006 33.0759 6.53291 33.0711H6.7818C7.18792 33.0025 7.55028 32.7757 7.7894 32.4403C8.02852 32.105 8.12488 31.6885 8.05736 31.2822C7.86979 30.1668 7.77613 29.0377 7.77736 27.9066C7.77736 22.5434 9.9079 17.3998 13.7003 13.6074C17.4927 9.81495 22.6363 7.6844 27.9996 7.6844C30.7498 7.67202 33.473 8.22641 35.9995 9.31301C38.5259 10.3996 40.8014 11.9951 42.684 14H34.3151C33.9026 14 33.5069 14.1638 33.2152 14.4556C32.9235 14.7473 32.7596 15.143 32.7596 15.5555C32.7596 15.9681 32.9235 16.3637 33.2152 16.6555C33.5069 16.9472 33.9026 17.1111 34.3151 17.1111H48.2218V3.11107C48.2225 2.71418 48.0715 2.33203 47.7997 2.04285C47.5278 1.75367 47.1558 1.57933 46.7596 1.55551Z" fill="#575757"/>
</g>
<defs>
<clipPath id="clip0_782_526">
<rect width="56" height="56" fill="white"/>
</clipPath>
</defs>
</svg>
