<svg width="48" height="48" viewBox="0 0 48 48" fill="none" xmlns="http://www.w3.org/2000/svg">
<path d="M47.2069 1.77292C47.2069 1.28886 46.7283 1.04684 46.2496 0.804809C37.1557 -1.61546 27.3439 1.53089 21.3611 8.79169L18.25 12.4221L11.7886 10.7279C9.15614 9.75979 6.5237 10.9699 5.32713 13.3902L0.301565 22.3452C0.301565 22.3452 0.301565 22.5872 0.0622524 22.5872C-0.17706 23.3133 0.301565 23.7973 1.0195 24.0394L9.15614 25.7336C8.4382 27.9118 7.72026 30.09 7.48095 32.2683C7.48095 32.7523 7.48095 32.9943 7.72026 33.2364L14.8996 40.2551C15.139 40.4972 15.3783 40.4972 15.8569 40.4972C18.0107 40.2551 20.4038 39.7711 22.5577 39.045L24.2328 47.0319C24.2328 47.5159 24.9508 48 25.4294 48C25.6687 48 25.908 48 25.908 47.758L34.7626 42.6754C36.9164 41.4653 37.8737 38.803 37.3951 36.3827L35.7199 29.364L39.0702 26.2176C46.4889 20.651 49.6 10.9699 47.2069 1.77292ZM3.17332 22.1032L7.24164 14.6003C7.95958 13.1482 9.39545 12.6641 10.8313 13.1482L16.3355 14.6003L13.9424 17.5046C12.5065 19.4409 11.0706 21.3771 10.1134 23.5553L3.17332 22.1032ZM33.8054 41.2233L26.3867 45.5797L24.9508 38.561C27.1046 37.5929 29.0191 36.1407 30.9336 34.6885L34.0447 31.7842L35.4806 37.3508C35.4806 38.803 35.0019 40.4972 33.8054 41.2233ZM37.6344 25.0075L29.2584 32.7523C25.6687 35.8987 21.1218 37.8349 16.3355 38.3189L10.1134 32.0262C10.8313 27.1857 12.7458 22.5872 15.8569 18.9568L19.6859 14.6003L19.9252 14.3583L23.2756 10.4859C28.5405 4.19318 37.1557 1.28886 45.0531 2.98305C46.7283 11.212 44.0958 19.6829 37.6344 25.0075ZM34.7626 8.79169C32.1302 8.79169 30.2157 10.9699 30.2157 13.3902C30.2157 15.8105 32.3695 17.9887 34.7626 17.9887C37.3951 17.9887 39.3096 15.8105 39.3096 13.3902C39.3096 10.9699 37.3951 8.79169 34.7626 8.79169ZM34.7626 15.8105C33.566 15.8105 32.6088 14.8424 32.6088 13.6322C32.6088 12.4221 33.566 11.454 34.7626 11.454C35.9592 11.454 36.9164 12.4221 36.9164 13.6322C36.9164 14.8424 35.9592 15.8105 34.7626 15.8105Z" fill="#155dfc"/>
</svg>
