<svg width="24" height="24" viewBox="0 0 24 24" fill="none" xmlns="http://www.w3.org/2000/svg">
<path d="M20 20L16.1396 16.1396M16.1396 16.1396C16.7999 15.4793 17.3237 14.6954 17.6811 13.8326C18.0385 12.9698 18.2224 12.0451 18.2224 11.1112C18.2224 10.1774 18.0385 9.25267 17.6811 8.3899C17.3237 7.52713 16.7999 6.74319 16.1396 6.08286C15.4793 5.42252 14.6953 4.89871 13.8326 4.54134C12.9698 4.18397 12.0451 4.00003 11.1112 4.00003C10.1774 4.00003 9.25264 4.18397 8.38987 4.54134C7.5271 4.89871 6.74316 5.42252 6.08283 6.08286C4.74921 7.41647 4 9.22523 4 11.1112C4 12.9973 4.74921 14.806 6.08283 16.1396C7.41644 17.4732 9.2252 18.2225 11.1112 18.2225C12.9972 18.2225 14.806 17.4732 16.1396 16.1396Z" stroke="#155DFC" stroke-width="1.5" stroke-linecap="round" stroke-linejoin="round"/>
</svg>
