<svg width="60" height="60" viewBox="0 0 60 60" fill="none" xmlns="http://www.w3.org/2000/svg">
<path d="M14.0628 25.3805V9.375C14.0628 9.12636 13.9641 8.8879 13.7882 8.71209C13.6124 8.53627 13.374 8.4375 13.1253 8.4375C12.8767 8.4375 12.6382 8.53627 12.4624 8.71209C12.2866 8.8879 12.1878 9.12636 12.1878 9.375V25.3805C10.6269 25.6069 9.19973 26.3879 8.16759 27.5806C7.13545 28.7732 6.56738 30.2977 6.56738 31.875C6.56738 33.4523 7.13545 34.9768 8.16759 36.1694C9.19973 37.3621 10.6269 38.1431 12.1878 38.3695V50.625C12.1878 50.8736 12.2866 51.1121 12.4624 51.2879C12.6382 51.4637 12.8767 51.5625 13.1253 51.5625C13.374 51.5625 13.6124 51.4637 13.7882 51.2879C13.9641 51.1121 14.0628 50.8736 14.0628 50.625V38.3695C15.6238 38.1431 17.0509 37.3621 18.0831 36.1694C19.1152 34.9768 19.6833 33.4523 19.6833 31.875C19.6833 30.2977 19.1152 28.7732 18.0831 27.5806C17.0509 26.3879 15.6238 25.6069 14.0628 25.3805ZM13.1253 36.5625C12.1982 36.5625 11.2919 36.2876 10.5211 35.7725C9.75024 35.2574 9.14943 34.5254 8.79464 33.6688C8.43986 32.8123 8.34703 31.8698 8.5279 30.9605C8.70876 30.0512 9.15521 29.216 9.81076 28.5604C10.4663 27.9049 11.3016 27.4584 12.2108 27.2776C13.1201 27.0967 14.0626 27.1895 14.9192 27.5443C15.7757 27.8991 16.5078 28.4999 17.0228 29.2708C17.5379 30.0416 17.8128 30.9479 17.8128 31.875C17.8128 33.1182 17.319 34.3105 16.4399 35.1896C15.5608 36.0686 14.3685 36.5625 13.1253 36.5625ZM30.9378 14.1305V9.375C30.9378 9.12636 30.8391 8.8879 30.6632 8.71209C30.4874 8.53627 30.249 8.4375 30.0003 8.4375C29.7517 8.4375 29.5132 8.53627 29.3374 8.71209C29.1616 8.8879 29.0628 9.12636 29.0628 9.375V14.1305C27.5019 14.3569 26.0747 15.1379 25.0426 16.3306C24.0105 17.5232 23.4424 19.0477 23.4424 20.625C23.4424 22.2023 24.0105 23.7268 25.0426 24.9194C26.0747 26.1121 27.5019 26.8931 29.0628 27.1195V50.625C29.0628 50.8736 29.1616 51.1121 29.3374 51.2879C29.5132 51.4637 29.7517 51.5625 30.0003 51.5625C30.249 51.5625 30.4874 51.4637 30.6632 51.2879C30.8391 51.1121 30.9378 50.8736 30.9378 50.625V27.1195C32.4988 26.8931 33.9259 26.1121 34.9581 24.9194C35.9902 23.7268 36.5583 22.2023 36.5583 20.625C36.5583 19.0477 35.9902 17.5232 34.9581 16.3306C33.9259 15.1379 32.4988 14.3569 30.9378 14.1305ZM30.0003 25.3125C29.0732 25.3125 28.1669 25.0376 27.3961 24.5225C26.6252 24.0074 26.0244 23.2754 25.6696 22.4188C25.3149 21.5623 25.222 20.6198 25.4029 19.7105C25.5838 18.8012 26.0302 17.966 26.6858 17.3104C27.3413 16.6549 28.1766 16.2084 29.0858 16.0276C29.9951 15.8467 30.9376 15.9395 31.7942 16.2943C32.6507 16.6491 33.3828 17.2499 33.8978 18.0208C34.4129 18.7916 34.6878 19.6979 34.6878 20.625C34.6878 21.8682 34.194 23.0605 33.3149 23.9396C32.4358 24.8186 31.2435 25.3125 30.0003 25.3125ZM53.4378 39.375C53.4377 37.7971 52.869 36.272 51.8359 35.0792C50.8028 33.8865 49.3746 33.1059 47.8128 32.8805V9.375C47.8128 9.12636 47.7141 8.8879 47.5382 8.71209C47.3624 8.53627 47.124 8.4375 46.8753 8.4375C46.6267 8.4375 46.3882 8.53627 46.2124 8.71209C46.0366 8.8879 45.9378 9.12636 45.9378 9.375V32.8805C44.3769 33.1069 42.9497 33.8879 41.9176 35.0806C40.8854 36.2732 40.3174 37.7977 40.3174 39.375C40.3174 40.9523 40.8854 42.4768 41.9176 43.6694C42.9497 44.8621 44.3769 45.6431 45.9378 45.8695V50.625C45.9378 50.8736 46.0366 51.1121 46.2124 51.2879C46.3882 51.4637 46.6267 51.5625 46.8753 51.5625C47.124 51.5625 47.3624 51.4637 47.5382 51.2879C47.7141 51.1121 47.8128 50.8736 47.8128 50.625V45.8695C49.3746 45.6441 50.8028 44.8635 51.8359 43.6708C52.869 42.478 53.4377 40.9529 53.4378 39.375ZM46.8753 44.0625C45.9482 44.0625 45.0419 43.7876 44.2711 43.2725C43.5002 42.7574 42.8994 42.0254 42.5446 41.1688C42.1899 40.3123 42.097 39.3698 42.2779 38.4605C42.4588 37.5512 42.9052 36.716 43.5608 36.0604C44.2163 35.4049 45.0516 34.9584 45.9608 34.7776C46.8701 34.5967 47.8126 34.6895 48.6692 35.0443C49.5257 35.3991 50.2578 35.9999 50.7728 36.7708C51.2879 37.5416 51.5628 38.4479 51.5628 39.375C51.5628 40.6182 51.069 41.8105 50.1899 42.6896C49.3108 43.5686 48.1185 44.0625 46.8753 44.0625Z" fill="#575757" stroke="#575757" stroke-width="0.4"/>
</svg>
