<svg width="24" height="24" viewBox="0 0 24 24" fill="none" xmlns="http://www.w3.org/2000/svg">
<path d="M12 20C16.4184 20 20 16.4184 20 12C20 7.5816 16.4184 4 12 4C7.5816 4 4 7.5816 4 12C4 16.4184 7.5816 20 12 20Z" stroke="#155DFC" stroke-miterlimit="10" stroke-linejoin="round"/>
<path d="M11.9992 16.8C13.2723 16.8 14.4932 16.2943 15.3933 15.3941C16.2935 14.494 16.7992 13.2731 16.7992 12C16.7992 10.727 16.2935 9.50607 15.3933 8.6059C14.4932 7.70573 13.2723 7.20001 11.9992 7.20001C10.7262 7.20001 9.50528 7.70573 8.60511 8.6059C7.70493 9.50607 7.19922 10.727 7.19922 12C7.19922 13.2731 7.70493 14.494 8.60511 15.3941C9.50528 16.2943 10.7262 16.8 11.9992 16.8Z" stroke="#155DFC" stroke-miterlimit="10" stroke-linejoin="round"/>
<path d="M12.0004 13.6C12.4247 13.6 12.8317 13.4314 13.1318 13.1314C13.4318 12.8313 13.6004 12.4243 13.6004 12C13.6004 11.5756 13.4318 11.1687 13.1318 10.8686C12.8317 10.5686 12.4247 10.4 12.0004 10.4C11.576 10.4 11.1691 10.5686 10.869 10.8686C10.569 11.1687 10.4004 11.5756 10.4004 12C10.4004 12.4243 10.569 12.8313 10.869 13.1314C11.1691 13.4314 11.576 13.6 12.0004 13.6Z" stroke="#155DFC" stroke-miterlimit="10" stroke-linejoin="round"/>
</svg>
