<svg width="24" height="24" viewBox="0 0 24 24" fill="none" xmlns="http://www.w3.org/2000/svg">
<path d="M20.1005 4.5C17.345 4.5 14.8715 4.0005 12.6395 1.764C12.4707 1.59546 12.242 1.50079 12.0035 1.50079C11.765 1.50079 11.5362 1.59546 11.3675 1.764C9.12945 4.0005 6.65445 4.5 3.90195 4.5C3.66326 4.5 3.43434 4.59482 3.26556 4.76361C3.09677 4.93239 3.00195 5.16131 3.00195 5.4V10.803C3.00195 16.596 5.95695 20.5335 11.717 22.455C11.9019 22.5168 12.102 22.5168 12.287 22.455C18.0485 20.535 21.002 16.596 21.002 10.803V5.4C21.002 4.9035 20.597 4.5 20.1005 4.5ZM19.5005 10.8015C19.5005 15.8955 17.0465 19.2225 12.0005 20.9655C6.95445 19.2225 4.50045 15.8955 4.50045 10.8015V5.9925C6.86895 5.934 9.52845 5.469 12.002 3.228C14.471 5.4675 17.132 5.9325 19.5005 5.9925V10.8015ZM11.249 13.1895L15.218 9.2205C15.2877 9.15077 15.3705 9.09546 15.4616 9.05772C15.5527 9.01998 15.6503 9.00055 15.749 9.00055C15.8476 9.00055 15.9452 9.01998 16.0363 9.05772C16.1274 9.09546 16.2102 9.15077 16.28 9.2205C16.3497 9.29023 16.405 9.37302 16.4427 9.46413C16.4805 9.55524 16.4999 9.65289 16.4999 9.7515C16.4999 9.85012 16.4805 9.94777 16.4427 10.0389C16.405 10.13 16.3497 10.2128 16.28 10.2825L11.78 14.7825C11.7103 14.8523 11.6275 14.9078 11.5364 14.9456C11.4453 14.9834 11.3476 15.0028 11.249 15.0028C11.1503 15.0028 11.0526 14.9834 10.9615 14.9456C10.8704 14.9078 10.7876 14.8523 10.718 14.7825L8.46795 12.5325C8.32712 12.3917 8.24801 12.2007 8.24801 12.0015C8.24801 11.8023 8.32712 11.6113 8.46795 11.4705C8.60878 11.3297 8.79979 11.2506 8.99895 11.2506C9.19812 11.2506 9.38912 11.3297 9.52995 11.4705L11.249 13.1895Z" fill="white" fill-opacity="0.8"/>
</svg>
