<svg width="24" height="24" viewBox="0 0 24 24" fill="none" xmlns="http://www.w3.org/2000/svg">
<path d="M12 4C14.0287 4 15.8798 4.75647 17.29 6.00098L17.292 6L17.3125 6.02051C17.5496 6.23132 17.7738 6.45605 17.9844 6.69336L17.999 6.70801L17.9971 6.70898C19.2424 8.11939 20 9.97058 20 12C20 14.0289 19.2428 15.8798 17.998 17.29L18.001 17.293L17.9648 17.3281C17.7646 17.5521 17.5521 17.7646 17.3281 17.9648L17.2939 18L17.291 17.9971C15.8806 19.2424 14.0294 20 12 20C9.97081 20 8.11933 19.2431 6.70898 17.998L6.70801 18L6.68555 17.9775C6.45144 17.7693 6.22973 17.5476 6.02148 17.3135L6.00098 17.293L6.00195 17.291C4.7569 15.8807 4 14.0292 4 12C4 9.97081 4.7569 8.11933 6.00195 6.70898L6 6.70703L6.02734 6.67871C6.23186 6.44932 6.44932 6.23186 6.67871 6.02734L6.70703 6L6.70898 6.00195C8.11933 4.7569 9.97081 4 12 4ZM14.4512 15.1582C13.7739 15.6846 12.9243 16 12 16C11.0755 16 10.2253 15.6849 9.54785 15.1582L7.41699 17.2891C8.64511 18.3542 10.2467 19 12 19C13.753 19 15.354 18.3539 16.582 17.2891L14.4512 15.1582ZM6.70996 7.41699C5.64511 8.64505 5 10.247 5 12C5 13.7528 5.6454 15.354 6.70996 16.582L8.84082 14.4512C8.3146 13.7739 8 12.9241 8 12C8 11.0754 8.31403 10.2243 8.84082 9.54688L6.70996 7.41699ZM15.1582 9.54688C15.6852 10.2244 16 11.0752 16 12C16 12.9243 15.6846 13.7739 15.1582 14.4512L17.2891 16.582C18.3539 15.354 19 13.753 19 12C19 10.2467 18.3542 8.64511 17.2891 7.41699L15.1582 9.54688ZM12 9C10.3431 9 9 10.3431 9 12C9 13.6569 10.3431 15 12 15C13.6569 15 15 13.6569 15 12C15 10.3431 13.6569 9 12 9ZM12 5C10.247 5 8.64505 5.64511 7.41699 6.70996L9.54785 8.83984C10.2251 8.31356 11.0759 8 12 8C12.9238 8 13.774 8.31385 14.4512 8.83984L16.5811 6.70996C15.3531 5.64569 13.7525 5 12 5Z" fill="#155DFC"/>
</svg>
