<svg width="80" height="48" viewBox="0 0 80 48" fill="none" xmlns="http://www.w3.org/2000/svg">
<mask id="path-1-inside-1_792_336" fill="white">
<path d="M65.0658 2.8942C65.7024 3.02462 66.3149 3.08135 66.4165 4.00017C66.4682 4.46816 67.094 4.51603 67.5559 4.52866C68.3845 4.55147 68.6012 4.6866 68.5519 5.43203C68.5121 6.03402 68.7048 6.21213 69.2626 6.2617C69.9971 6.32691 70.6852 6.53819 71.4581 6.23833C72.1537 5.96862 72.5516 6.32465 72.8818 7.16997C72.9519 7.34902 73.0522 7.58782 73.2595 7.45871C74.2047 6.87029 75.3333 7.32866 76.3458 6.80941C77.0185 6.4645 77.9769 6.62075 78.6517 7.27514C78.9781 7.59159 79.3653 7.74369 79.7702 7.46549C80.1997 7.17053 80.5553 7.44194 80.7763 7.67131C81.4782 8.39977 82.2708 8.18321 83.0762 8.02829C83.184 8.00755 83.2884 7.96835 83.3943 7.93782C83.8318 7.81135 83.4218 8.82441 83.9121 8.39261C84.1719 8.1638 84.3537 8.11593 84.6475 8.07993C85.9862 7.91577 86.9734 8.68192 88 9.361L87.5089 10.5248C87.4734 10.5157 87.4377 10.5074 87.4019 10.4998C87.1107 10.4385 86.8449 9.92436 86.7571 10.065C86.5755 10.3552 86.2104 10.6034 86.2578 11.0094C86.3187 11.5304 86.0634 11.6534 85.6061 11.6755C85.1989 11.6951 84.7829 11.7678 84.4676 12.0926C84.2108 12.3574 83.9065 12.3627 83.5423 12.3485C82.6012 12.312 82.0947 12.7628 81.977 13.7254C81.8561 14.7126 80.9425 15.0669 80.4593 15.7622C80.3032 15.9869 80.1631 15.6957 80.0792 15.5458C79.6957 14.8602 79.9333 14.2227 80.2753 13.6211C80.4408 13.3301 80.7068 13.0987 80.9168 12.8316C81.0441 12.6697 81.3755 12.5657 81.2246 12.3139C81.091 12.0911 80.7841 12.0306 80.5181 12.0375C80.1858 12.0464 79.961 12.2763 79.8078 12.5374C79.5409 12.9924 79.2263 12.9255 78.7638 12.8418C77.5581 12.6237 76.3098 12.4961 75.47 13.7171C75.2477 14.0403 74.5598 14.0874 74.7695 14.6123C74.967 15.1063 75.575 14.7795 75.9868 14.9075C76.2911 15.0019 76.7013 14.896 76.7149 15.3093C76.7295 15.7549 77.1789 16.2536 76.6776 16.6505C76.522 16.7738 76.3815 16.8488 76.3604 17.0586C76.3498 17.1643 76.3533 17.3243 76.2252 17.3239C76.1039 17.3235 76.1172 17.1656 76.1047 17.064C76.0955 16.989 76.1019 16.9123 76.0933 16.8371C76.0694 16.6262 76.1615 16.3974 75.9992 16.2076C75.9426 16.4211 75.9231 16.6548 75.8228 16.845C75.3452 17.7529 74.836 18.6105 73.7196 18.8838C72.6967 19.134 72.5951 19.3453 72.8411 20.3876C72.9308 20.7676 72.9328 21.0912 72.529 21.2256C72.1386 21.3554 72.017 20.9896 71.8823 20.7363C71.7785 20.541 71.7202 20.3115 71.6864 20.0904C71.6369 19.7666 71.4587 19.7374 71.2086 19.8301C71.0139 19.9023 70.8073 20.1469 70.6297 19.857C70.5072 19.6571 70.4291 19.5248 70.2522 19.7756C70.1463 19.9258 69.9795 20.1109 70.0002 20.2572C70.0452 20.5753 70.2791 20.3179 70.4312 20.3328C70.8658 20.3757 71.2754 20.4279 70.7042 20.9449C70.4452 21.1794 70.5227 21.4862 70.5821 21.7923C70.8854 23.3555 70.2214 24.5103 68.751 25.0403C68.3836 25.1728 67.9246 25.1502 67.766 25.6728C67.665 26.0059 67.5141 25.9776 67.3672 25.6442C67.1898 25.241 66.9242 25.4991 66.7251 25.6397C66.4548 25.8308 66.4503 26.0702 66.7012 26.2995C66.8125 26.4013 66.9317 26.4952 67.0357 26.6039C67.7457 27.3456 67.4958 28.3839 66.5297 28.7712C66.2633 28.8781 66.2224 28.6945 66.1158 28.5418C65.8257 28.1266 65.3251 27.6366 64.9526 27.9766C64.472 28.4154 64.9803 28.9365 65.3626 29.3057C65.6439 29.5773 65.9751 29.9043 65.9038 30.2572C65.7403 31.0642 66.4488 31.555 66.4938 32.2699C66.5142 32.5922 66.8218 32.6404 67.0779 32.7121C67.829 32.9222 68.5283 33.3565 69.3584 33.2258C69.5011 33.2034 69.7109 33.2613 69.7214 33.4162C69.7363 33.636 69.5101 33.5726 69.3778 33.5847C68.431 33.6705 67.4618 33.5095 66.6102 33.2349C65.9536 33.0232 65.3981 32.2612 64.9715 31.6253C64.6173 31.0956 64.2288 30.5901 63.8085 30.112C63.6856 29.9724 63.4559 29.8842 63.6044 29.6729C63.7719 29.4346 64.0164 29.5283 64.1901 29.6827C64.4423 29.9068 64.6624 30.1676 64.899 30.4098C64.9775 30.4901 65.0897 30.5779 65.1846 30.4971C65.2959 30.4025 65.1768 30.2996 65.1185 30.2174C64.5023 29.3474 64.2712 28.3822 64.3558 27.3186C64.3874 26.9221 64.3231 26.5251 63.74 26.6522C63.2383 26.7615 63.2515 26.2784 63.0773 26.0296C62.346 24.9855 62.0744 24.9587 61.135 25.8052C60.9193 25.9995 60.6828 26.1704 60.4469 26.3393C59.6355 26.9204 59.4216 27.7811 59.8385 28.7367C59.9239 28.9325 60.1331 29.1493 59.902 29.3476C59.6891 29.5304 59.5096 29.2991 59.3067 29.2292C58.3705 28.9063 58.0179 28.1193 57.8892 27.2724C57.6973 26.011 56.7563 25.2818 56.0837 24.3577C55.9111 24.1204 55.6533 24.0702 55.3828 24.0655C55.0449 24.0595 54.7042 24.0293 54.3697 24.0623C54.1614 24.0829 53.9632 24.0523 53.7679 24.0092C53.4346 23.9357 53.237 24.3677 53.5088 24.5755C53.6384 24.6747 53.7791 24.765 53.899 24.8724C54.1149 25.0658 53.8926 25.183 53.8299 25.347C53.4331 26.3845 52.4437 26.6516 51.5936 27.0457C51.062 27.292 50.5586 27.6645 49.9368 27.7014C49.8214 27.7082 49.7065 27.7695 49.7065 27.9025C49.7065 28.0821 49.8473 28.1688 49.9972 28.1824C50.378 28.2171 50.7135 28.0075 51.0777 27.9489C51.585 27.8675 51.8297 28.2146 51.6035 28.68C51.1573 29.5984 50.5835 30.4456 49.7616 31.0913C48.503 32.0803 48.3831 32.4842 48.8551 33.9654C49.225 35.1262 49.1816 35.3013 48.1784 36.0692C47.7957 36.3623 47.4676 36.6309 47.658 37.1855C47.7333 37.4049 47.7518 37.7048 47.5717 37.8301C46.852 38.3317 46.6164 39.1659 46.1646 39.8444C45.4382 40.9351 44.3249 40.8827 43.2539 40.9649C42.9182 40.9907 42.6651 40.6548 42.6311 40.3923C42.5086 39.4474 42.0442 38.5874 41.7224 37.7542C41.2272 36.472 40.8557 35.3666 41.3518 34.0146C41.4941 33.6265 41.3066 32.9855 41.0535 32.6086C40.6295 31.977 40.4279 31.3407 40.4475 30.5977C40.4537 30.361 40.3261 30.0662 40.0897 30.1009C39.4449 30.1955 38.9218 29.5962 38.3817 29.7189C37.7755 29.8566 37.1119 29.7362 36.5549 30.0858C36.1807 30.3207 35.8497 30.2262 35.509 30.0003C34.6535 29.433 34.1688 28.5049 33.4224 27.8317C33.3441 27.761 33.2969 27.6223 33.3156 27.518C33.5722 26.0841 33.0813 24.4351 34.4223 23.3101C35.0742 22.7632 35.3316 21.925 35.9588 21.3645C36.2222 21.1291 36.2343 20.8104 35.834 20.6528C35.5671 20.5476 35.2888 20.3963 35.3757 20.1055C35.5204 19.6209 35.2417 19.1101 35.4851 18.6666C35.7037 18.2688 36.128 18.3409 36.4998 18.3609C37.6076 18.4205 37.7088 18.3347 37.512 17.1948C37.4287 16.7119 37.5426 16.4867 37.9515 16.1882C38.4257 15.8417 38.8789 15.439 39.361 15.0954C40.1365 14.5424 40.2241 14.3275 39.6703 13.4877C39.497 13.2249 39.3845 12.9679 39.3162 12.672C39.126 11.8476 39.2541 11.4929 40.0254 11.1272C40.5635 10.8722 40.967 10.5384 41.2037 9.98071C41.6148 9.01175 42.4068 8.46253 43.3443 8.0984C43.7291 7.94894 44.131 7.84471 44.5184 7.70128C45.2086 7.44571 45.7981 7.32753 46.4239 7.99568C46.8357 8.43539 47.6216 8.36773 48.1668 8.72433C48.3521 8.84571 48.6401 8.86663 48.7561 9.02608C49.21 9.64937 49.5427 9.97204 49.8005 8.89377C49.8597 8.6463 50.2517 8.56375 50.4632 8.81781C50.7845 9.204 51.0738 9.11353 51.4384 8.90112C52.05 8.5449 52.7594 8.72546 53.418 8.59597C54.117 8.45858 53.6584 8.15456 53.5684 7.89239L53.5809 7.87675C54.1308 7.9904 54.6781 8.11989 55.2315 8.21111C55.5244 8.25936 55.7308 8.26652 55.8218 7.80381C56.0192 6.79942 56.4662 6.61 57.5591 6.71385C57.9503 6.75098 58.3283 6.68294 58.7245 6.85954C58.9533 6.96151 59.3637 6.91665 59.4272 6.50653C59.5157 5.9345 59.8055 6.0082 60.2325 6.13448C60.6273 6.25114 61.1662 6.45074 61.1606 5.64651C61.1591 5.4358 61.4173 5.39735 61.5986 5.35739C62.3953 5.18211 63.1383 4.81307 63.9972 4.85171C64.7858 4.88714 64.9986 4.35884 64.5747 3.60023C64.8071 3.41439 64.9409 3.1575 65.0658 2.8942ZM39.7938 18.5579C38.9624 18.706 38.3983 19.2121 38.0596 19.9413C37.8941 20.2977 37.7499 20.6174 37.384 20.7928C37.262 20.8513 37.0147 20.8177 37.0446 20.9783C37.068 21.1034 37.3175 21.0772 37.4513 21.0301C38.1215 20.7943 38.7885 20.5736 39.5069 20.5107C39.8993 20.4762 40.2516 20.5331 40.5936 20.6911C40.9298 20.8464 40.8867 21.1671 40.9052 21.4717C40.9197 21.7084 41.1034 21.9058 41.3382 21.918C42.0905 21.957 42.8074 22.6007 43.6045 22.0398C43.7274 21.9533 43.9947 21.9712 44.1445 22.0453C44.9734 22.4559 45.8601 22.171 46.7121 22.2891C47.1294 22.347 47.2777 21.9348 47.3576 21.6291C47.4553 21.2552 47.1546 21.2476 46.866 21.2275C46.6161 21.2099 46.3568 20.9988 46.1297 21.038C45.3474 21.173 45.003 20.8452 44.9535 20.0876C44.9436 19.9345 44.8515 19.7886 44.663 19.8148C44.5362 19.8325 44.5472 19.973 44.4992 20.0661C44.2222 20.604 43.5051 20.6963 43.1622 20.2387C43.0581 20.1 43.049 19.7319 42.8978 19.8084C42.1191 20.2027 41.7747 19.4731 41.2558 19.2198C40.9151 19.0534 40.7033 18.9923 40.6691 19.4914C40.651 19.757 40.5038 20.0923 40.207 20.0041C39.7805 19.8774 40.159 19.579 40.1773 19.3538C40.2055 19.0163 40.4475 18.5669 39.7938 18.5579ZM42.7652 14.4231C43.2843 14.4504 43.2414 14.4229 43.4522 14.0876C43.9474 13.3 43.7511 12.5214 43.4926 11.7369C43.4199 11.5162 43.4489 11.1086 43.048 11.2527C42.7428 11.3626 42.5517 11.7211 42.7495 11.9923C43.4181 12.9098 42.5385 13.3527 42.1787 13.9076C41.9538 14.2546 41.5018 14.6065 41.12 13.9511C41.0641 13.8552 40.9354 13.7776 40.845 13.868C40.7802 13.9329 40.7544 14.0804 40.7726 14.1798C40.8917 14.8308 41.4 14.692 41.8345 14.6932C42.1696 14.6941 42.3819 14.2584 42.7652 14.4231ZM48.9414 19.0032C48.783 18.3803 47.9073 18.4342 47.7779 17.7195C47.7484 17.5565 47.5276 17.9698 47.3705 18.0897C47.1217 18.2795 46.8705 18.3362 46.7164 18.0241C46.5903 17.7687 46.4547 17.6153 46.2354 17.8485C45.9847 18.115 45.6879 18.3901 45.7361 18.8204C45.7667 19.0939 45.9752 19.25 46.2042 19.1996C46.923 19.0417 47.5887 19.1431 48.2673 19.4126C48.5516 19.5253 48.863 19.39 48.9414 19.0032ZM48.2329 24.9159C47.9978 24.9672 47.9886 25.1397 47.9763 25.3283C47.94 25.8783 48.3319 26.1981 48.6201 26.5726C48.7509 26.7425 48.8852 27.0461 49.1013 26.9532C49.4132 26.819 49.2167 26.5099 49.1577 26.2765C49.0458 25.8332 48.7219 25.5091 48.495 25.1306C48.4431 25.0435 48.3306 24.9934 48.2329 24.9159ZM-8 15.1932C-7.06064 14.6119 -6.10951 14.0561 -5.05807 13.698C-4.92395 13.6524 -4.73754 13.5685 -4.75211 13.4049C-4.76892 13.2155 -4.99549 13.2979 -5.11429 13.2274C-5.59826 12.9402 -6.09998 12.678 -6.55873 12.354C-7.12545 11.9537 -7.09912 11.6223 -6.51559 11.2637C-6.38969 11.1862 -6.24157 11.1461 -6.10446 11.0865C-5.94737 11.0181 -5.62759 11.0652 -5.69035 10.8313C-5.74545 10.6259 -6.01873 10.82 -6.19449 10.81C-6.34224 10.8017 -6.50102 10.8102 -6.6342 10.7576C-6.89103 10.6562 -7.11761 10.463 -7.07166 10.1682C-7.01319 9.79298 -6.68295 9.76396 -6.37344 9.76038C-6.23559 9.75869 -6.03797 9.92172 -5.9767 9.74756C-5.91973 9.58585 -6.15583 9.56003 -6.27481 9.48219C-7.16374 8.8998 -7.16038 8.75731 -6.26491 8.23278C-6.03834 8.10009 -5.82615 7.93706 -5.58836 7.83095C-4.91237 7.52939 -4.2771 7.34676 -3.47932 7.62985C-2.61468 7.93669 -1.64225 7.91878 -0.73016 8.10858C0.40141 8.34398 1.47582 8.34945 2.62981 8.05354C3.73821 7.76932 4.92638 7.98079 6.03815 8.37527C6.17171 8.42258 6.34299 8.54169 6.44685 8.38526C6.5408 8.24371 6.42611 8.09011 6.3004 8.00473C6.11268 7.8775 5.94102 7.77064 5.89339 7.50677C5.83941 7.20785 5.6642 7.14113 5.43576 7.38898C5.16491 7.68281 4.83896 7.67753 4.50648 7.53146C4.16615 7.382 3.90595 7.16261 4.14149 6.74834C4.27337 6.51633 4.41776 6.30448 4.40188 6.01819C4.37946 5.61654 4.72745 5.52815 4.92582 5.65669C5.56408 6.06983 6.36429 5.84083 7.01263 6.34632C7.54573 6.7621 8.28187 6.88405 8.98513 6.4515C9.39102 6.20195 9.81933 6.14673 9.7306 6.8831C9.69623 7.16902 9.79131 7.48114 10.0013 7.59328C10.5777 7.90106 11.0613 8.13835 10.2407 8.74054C10.0687 8.86681 10.1966 9.10467 10.4107 9.16593C10.6659 9.23887 11.0318 9.28957 11.0611 8.96124C11.0955 8.57656 11.2277 8.36773 11.5253 8.14589C12.0107 7.78402 11.9291 7.56313 11.3056 7.55653C10.799 7.55106 10.6255 7.02145 10.2443 6.81054C10.6883 6.72987 10.8627 6.19253 11.3415 6.15936C11.602 6.14126 11.8602 6.08434 12.1189 6.04137C12.488 5.98011 12.7407 5.79465 12.7951 5.39471C12.8227 5.19191 12.8081 5.00494 12.5707 4.95726C12.2321 4.8894 11.9343 4.68623 11.6288 5.18098C11.1973 5.87928 10.3423 5.29482 9.7448 5.61466L9.58995 5.20095C9.68353 5.10069 9.69399 5.00061 9.58958 4.90053C9.66635 4.49832 9.37701 4.13569 9.57034 3.68466C9.8946 2.92812 9.97604 2.85085 10.6298 3.26889C10.8248 3.39366 11.0744 3.53426 10.9982 3.77645C10.896 4.10025 10.6242 3.82583 10.4299 3.83903C10.1888 3.85542 9.95662 3.87729 9.954 4.18262C9.95139 4.48305 10.1712 4.53639 10.42 4.53488C10.6821 4.53337 10.9449 4.55938 11.2061 4.54525C11.6878 4.51924 11.9693 4.35432 11.5821 3.8509C11.4136 3.6317 11.1973 3.3897 11.475 3.16843C11.7642 2.93792 11.9648 3.27285 12.1049 3.45114C12.2448 3.62925 12.7355 3.62906 12.445 4.11854C12.357 4.26687 12.8227 4.36808 13.0605 4.42726C13.1742 4.45553 13.2861 4.38542 13.3145 4.25744C13.3721 3.99754 13.2493 3.82433 13.0293 3.70653C12.9944 3.68871 12.961 3.66817 12.9294 3.64509C11.5397 2.6145 11.5563 2.29126 13.0485 1.40505C13.3067 1.25136 13.5865 1.13799 13.8783 1.06881C15.4058 0.701277 16.9713 0.595166 18.5217 0.412156C19.1696 0.335635 19.8561 0.559543 20.5207 0.673571C20.7732 0.716921 21.2146 0.822091 21.2208 0.921418C21.2389 1.21016 20.8414 1.19961 20.6638 1.38394C20.5629 1.48873 20.3748 1.56337 20.4751 1.7394C20.5896 1.94013 20.8431 1.94974 20.9525 1.8016C21.6046 0.920098 22.5141 1.14306 23.4086 1.0869C24.1365 1.04129 24.8717 0.944599 25.6198 0.684879C26.4436 0.398773 27.4261 0.315844 28.3516 0.241019C28.5371 0.226129 28.7756 0.33243 28.9053 0.249123C30.0249 -0.469348 30.9611 0.599878 32.0064 0.548989C32.1309 0.542958 32.2269 0.649257 32.187 0.775347C32.1571 0.869585 32.0603 1.00491 31.9843 1.01113C31.462 1.05429 30.9372 1.0656 30.4134 1.09406C30.3054 1.0999 30.199 1.13571 30.0918 1.15777C30.1553 1.34266 30.3181 1.27952 30.4364 1.27933C31.5551 1.2767 32.6717 1.43615 33.7939 1.30044C34.0665 1.26746 34.4615 1.22826 34.5151 1.64196C34.5573 1.96746 34.2144 2.02909 33.9914 2.15254C33.1897 2.59659 32.2957 2.98712 32.9099 4.19902C32.9866 4.35036 32.7873 4.49021 32.7907 4.60782C32.8209 5.65292 31.9156 6.46978 32.1089 7.55936C32.1633 7.86582 31.9725 8.18547 31.6638 8.2816C30.9893 8.49156 30.4646 9.09148 29.6943 9.04304C29.6214 9.03852 29.5312 9.04361 29.4748 9.08262C28.372 9.84369 26.9035 10.2048 26.5342 11.7746C26.3939 12.3708 26.048 12.4452 25.5203 12.2929C24.6844 12.0517 24.271 11.4099 23.8511 10.7171C23.4161 9.99918 23.2274 9.34931 23.8937 8.67513C23.9978 8.56996 23.9905 8.43803 23.845 8.30063C23.5127 7.98701 22.9254 6.95944 22.8372 6.61773C22.567 5.56943 21.5325 4.71356 20.5076 4.98986C19.3751 5.29519 18.9675 4.5345 18.3988 3.93251C18.1675 3.68787 18.3702 3.51673 18.5792 3.41138C18.8782 3.26041 19.2305 3.26135 19.5202 3.05271C19.755 2.88364 19.7709 2.73927 19.6512 2.49048C19.5249 2.22793 19.3702 2.32029 19.1991 2.38946C18.1813 2.80071 17.278 3.30451 16.9438 4.49926C16.832 4.89977 16.5185 5.22659 16.4158 5.68534C16.3274 6.08001 15.7917 5.99011 15.4305 6.04929C15.2988 6.07096 15.0707 5.94525 15.0591 6.1292C15.0506 6.26566 15.3242 6.20044 15.4415 6.26848C16.2533 6.73854 17.2601 6.45244 18.0704 7.04444C18.7155 7.51582 19.4758 7.76291 19.7898 8.64912C19.9429 9.08168 20.5367 9.23811 20.9839 9.42772C21.1929 9.5163 21.4961 9.58472 21.2678 9.85745C21.0891 10.071 21.0043 10.5831 20.5261 10.3286C20.3651 10.2429 20.2452 10.0798 20.103 9.95621C20.0205 9.8844 19.9086 9.78846 19.8169 9.86951C19.7156 9.95885 19.8142 10.07 19.8847 10.1509C19.9837 10.2647 20.1047 10.3611 20.1925 10.4822C20.3528 10.7035 20.7727 10.9105 20.4441 11.2152C20.1962 11.4454 19.8841 11.8157 19.4644 11.6171C18.6375 11.226 17.8967 10.5961 16.8837 10.7778C16.7877 10.7949 16.6934 10.6666 16.6917 10.5431C16.6896 10.405 16.7871 10.3484 16.9091 10.3386C17.0957 10.3235 17.2931 10.3511 17.4676 10.2987C17.9465 10.1547 18.2407 9.55739 18.0702 9.12691C17.872 8.62688 16.6713 8.04544 16.1029 8.11122C15.7 8.15796 15.963 8.31797 15.9357 8.4908C15.859 8.97783 16.2436 9.74964 15.2162 9.79129C14.8514 9.80618 15.1402 10.1094 15.2872 10.2468C15.5543 10.4966 16.1791 10.536 16.1059 10.8997C16.0362 11.2465 15.4271 10.7423 15.1184 11.0955C14.9898 11.2426 14.7502 11.2578 14.5967 11.1314C13.9941 10.6353 13.6302 11.1502 13.2454 11.4578C12.1008 12.373 12.148 12.8789 13.4769 13.525C13.7774 13.6711 14.0544 13.8908 14.3761 13.9698C15.214 14.1758 15.9279 14.4909 16.1384 15.4582C16.1756 15.6286 16.384 15.9373 16.636 15.6987C16.7746 15.5673 16.7756 15.3483 16.6685 15.1898C16.3403 14.7035 16.4023 14.3809 16.9653 14.1323C17.2166 14.0214 17.1402 13.7295 17.035 13.5269C16.848 13.1669 16.9198 12.7871 16.9026 12.4134C16.8589 11.455 17.3923 11.1042 18.2476 11.5596C18.5728 11.7328 18.947 11.936 19.1291 12.2317C19.4347 12.7279 19.6749 12.9852 20.2663 12.6152C20.6507 12.3747 20.9241 12.744 21.0484 13.0444C21.3201 13.7016 21.8172 14.1249 22.323 14.5786C22.7082 14.9241 23.3177 15.2343 22.9549 15.9737C22.8376 16.2125 23.1025 16.2653 23.2476 16.364C23.4998 16.5357 23.7357 16.7259 23.7917 17.0535C23.8175 17.2041 23.7209 17.4696 23.7026 17.4553C23.2898 17.1328 22.7969 17.4398 22.3908 17.2755C22.117 17.1647 22.1017 16.8718 22.2042 16.586C22.3617 16.1471 22.1336 16.1584 21.8093 16.2394C21.5938 16.2933 21.3562 16.3278 21.1397 16.2948C20.3593 16.1763 20.4032 16.4439 20.6404 17.0719C20.8509 17.6293 21.0665 17.5857 21.4591 17.362C21.6427 17.2574 21.836 17.281 21.922 17.4983C22.0036 17.7046 21.8762 17.9461 21.7202 17.9715C21.135 18.0673 20.6572 18.7788 19.962 18.2786C19.7528 18.1282 19.4012 18.2424 19.3654 18.4103C19.2234 19.0768 18.6668 19.2522 18.2077 19.5581C18.121 19.6158 18.0577 19.734 18.0198 19.8376C17.6819 20.757 17.199 21.5439 16.3984 22.1619C15.9916 22.4759 15.9653 23.0219 16.3827 23.4733C16.5876 23.6948 16.6455 24.0005 16.3695 24.16C16.096 24.3177 16.0575 23.9217 15.8933 23.7992C15.7183 23.6686 15.5704 23.479 15.4594 23.2866C15.1324 22.7196 14.6301 22.6586 14.0951 22.8316C13.7677 22.9375 13.4514 23.0176 13.1102 23.0178C12.4385 23.0182 11.8389 22.9846 11.9947 24.0454C12.0528 24.441 11.492 24.8854 12.0049 25.3905C12.3785 25.7582 12.7161 25.9328 13.1873 25.6359C13.3463 25.5358 13.495 25.4184 13.6558 25.3213C13.89 25.1798 14.1814 25.0712 14.4048 25.2109C14.7476 25.4254 14.4119 25.6951 14.3213 25.8811C14.0299 26.4807 14.0873 26.7913 14.8331 26.785C15.231 26.7818 15.4531 27.0502 15.4622 27.4449C15.4708 27.8147 15.3154 28.2797 15.7841 28.4225C16.2729 28.5714 16.8934 28.6219 17.2748 28.3143C18.096 27.6522 18.9049 27.7925 19.7877 28.0716C20.0251 28.1466 20.2717 28.182 20.5199 28.1984C21.9519 28.2938 22.7399 29.6584 24.0545 29.9807C24.5028 31.5461 26.1049 31.3041 27.1364 31.9542C27.4037 32.1227 27.747 32.2092 28.0361 32.3892C28.5937 32.7367 28.7474 33.1829 28.3244 33.7066C27.9013 34.2304 27.7918 34.8439 27.6118 35.4642C27.3157 36.4837 27.1334 37.6612 25.6809 37.754C25.2894 37.779 25.086 38.1507 24.9702 38.5475C24.5055 40.1397 24.3375 40.3076 22.6327 40.9722C22.5005 41.0239 22.4622 41.0766 22.5055 41.1991C22.7734 41.9557 22.2599 42.1617 21.7165 42.2129C21.2086 42.261 21.1827 42.6871 20.9811 42.9646C20.6187 43.4635 20.5343 44.1429 19.9941 44.5391C19.9605 44.5638 19.9982 44.783 20.0627 44.833C20.412 45.1034 20.2571 45.2778 20.035 45.5593C19.2983 46.4942 19.3116 46.5454 19.9732 47.518C20.0789 47.6733 20.2833 47.789 19.9513 47.9017C19.054 48.2063 18.2116 47.7852 17.8716 46.8838C17.6064 46.1807 17.5907 45.4125 17.776 44.7553C18.1628 43.3828 18.1064 41.9566 18.4352 40.5649C18.6868 39.4995 18.8898 38.3141 18.9066 37.1542C18.9173 36.4284 18.6304 35.8696 18.0607 35.5298C17.4301 35.1536 17.0767 34.6251 16.8391 33.9665C16.7759 33.7916 16.6625 33.6356 16.5828 33.466C16.3723 33.0183 15.5358 32.8704 16.0159 32.0778C16.2755 31.6492 16.1614 31.0256 16.6398 30.6712C16.9478 30.4432 16.9635 30.1115 16.9812 29.7588C17.0003 29.3821 16.9102 29.2268 16.4995 29.1864C15.7566 29.1137 14.9779 29.0328 14.7948 28.0535C14.755 27.8407 14.5025 27.8173 14.3353 27.7832C13.4724 27.6062 12.7917 27.0282 11.7943 26.9914C10.9524 26.9605 9.81783 26.5295 9.39065 25.3981C9.20199 24.8984 8.99092 24.5352 8.21033 24.6947C7.57188 24.8251 7.15758 24.0148 6.94091 23.4277C6.603 22.5127 6.12127 21.81 5.34105 21.18C4.4977 20.499 4.26608 19.3802 4.28737 18.2929C4.30194 17.5499 4.35779 16.8467 3.56581 16.4424C3.39714 16.3563 3.32802 16.2178 3.30468 15.9954C3.21184 15.1133 3.14011 15.0639 2.21177 14.9895C1.9131 14.9655 1.92486 14.7096 1.81503 14.523C1.13979 13.3767 0.282238 12.528 -1.15062 12.3717C-1.6699 12.315 -1.98875 12.5853 -2.40323 12.6661C-2.84312 12.7519 -3.36669 12.5449 -3.07754 13.3699C-2.99218 13.6138 -3.3708 13.983 -3.6805 13.882C-4.24666 13.6971 -4.51638 14.0032 -4.80665 14.3662C-4.87576 14.4527 -4.96393 14.5859 -5.04742 14.5891C-6.07327 14.6285 -6.92129 15.315 -7.93425 15.3898L-8 15.1932ZM13.3256 6.73138C13.1416 6.76267 12.9578 6.79923 12.8302 6.95359C12.6847 7.12963 12.7394 7.31434 12.861 7.46173C13.2548 7.93876 13.5475 8.52982 14.244 8.67193C14.3792 8.69945 14.2089 9.11466 14.5005 9.0421C14.6428 9.00685 14.7894 8.79387 14.841 8.63122C14.9075 8.42144 14.7183 8.27519 14.5419 8.23127C13.9377 8.08087 13.7243 7.64907 13.6595 7.0844C13.6373 6.89158 13.579 6.71216 13.3256 6.73138Z"/>
</mask>
<path d="M65.0658 2.8942C65.7024 3.02462 66.3149 3.08135 66.4165 4.00017C66.4682 4.46816 67.094 4.51603 67.5559 4.52866C68.3845 4.55147 68.6012 4.6866 68.5519 5.43203C68.5121 6.03402 68.7048 6.21213 69.2626 6.2617C69.9971 6.32691 70.6852 6.53819 71.4581 6.23833C72.1537 5.96862 72.5516 6.32465 72.8818 7.16997C72.9519 7.34902 73.0522 7.58782 73.2595 7.45871C74.2047 6.87029 75.3333 7.32866 76.3458 6.80941C77.0185 6.4645 77.9769 6.62075 78.6517 7.27514C78.9781 7.59159 79.3653 7.74369 79.7702 7.46549C80.1997 7.17053 80.5553 7.44194 80.7763 7.67131C81.4782 8.39977 82.2708 8.18321 83.0762 8.02829C83.184 8.00755 83.2884 7.96835 83.3943 7.93782C83.8318 7.81135 83.4218 8.82441 83.9121 8.39261C84.1719 8.1638 84.3537 8.11593 84.6475 8.07993C85.9862 7.91577 86.9734 8.68192 88 9.361L87.5089 10.5248C87.4734 10.5157 87.4377 10.5074 87.4019 10.4998C87.1107 10.4385 86.8449 9.92436 86.7571 10.065C86.5755 10.3552 86.2104 10.6034 86.2578 11.0094C86.3187 11.5304 86.0634 11.6534 85.6061 11.6755C85.1989 11.6951 84.7829 11.7678 84.4676 12.0926C84.2108 12.3574 83.9065 12.3627 83.5423 12.3485C82.6012 12.312 82.0947 12.7628 81.977 13.7254C81.8561 14.7126 80.9425 15.0669 80.4593 15.7622C80.3032 15.9869 80.1631 15.6957 80.0792 15.5458C79.6957 14.8602 79.9333 14.2227 80.2753 13.6211C80.4408 13.3301 80.7068 13.0987 80.9168 12.8316C81.0441 12.6697 81.3755 12.5657 81.2246 12.3139C81.091 12.0911 80.7841 12.0306 80.5181 12.0375C80.1858 12.0464 79.961 12.2763 79.8078 12.5374C79.5409 12.9924 79.2263 12.9255 78.7638 12.8418C77.5581 12.6237 76.3098 12.4961 75.47 13.7171C75.2477 14.0403 74.5598 14.0874 74.7695 14.6123C74.967 15.1063 75.575 14.7795 75.9868 14.9075C76.2911 15.0019 76.7013 14.896 76.7149 15.3093C76.7295 15.7549 77.1789 16.2536 76.6776 16.6505C76.522 16.7738 76.3815 16.8488 76.3604 17.0586C76.3498 17.1643 76.3533 17.3243 76.2252 17.3239C76.1039 17.3235 76.1172 17.1656 76.1047 17.064C76.0955 16.989 76.1019 16.9123 76.0933 16.8371C76.0694 16.6262 76.1615 16.3974 75.9992 16.2076C75.9426 16.4211 75.9231 16.6548 75.8228 16.845C75.3452 17.7529 74.836 18.6105 73.7196 18.8838C72.6967 19.134 72.5951 19.3453 72.8411 20.3876C72.9308 20.7676 72.9328 21.0912 72.529 21.2256C72.1386 21.3554 72.017 20.9896 71.8823 20.7363C71.7785 20.541 71.7202 20.3115 71.6864 20.0904C71.6369 19.7666 71.4587 19.7374 71.2086 19.8301C71.0139 19.9023 70.8073 20.1469 70.6297 19.857C70.5072 19.6571 70.4291 19.5248 70.2522 19.7756C70.1463 19.9258 69.9795 20.1109 70.0002 20.2572C70.0452 20.5753 70.2791 20.3179 70.4312 20.3328C70.8658 20.3757 71.2754 20.4279 70.7042 20.9449C70.4452 21.1794 70.5227 21.4862 70.5821 21.7923C70.8854 23.3555 70.2214 24.5103 68.751 25.0403C68.3836 25.1728 67.9246 25.1502 67.766 25.6728C67.665 26.0059 67.5141 25.9776 67.3672 25.6442C67.1898 25.241 66.9242 25.4991 66.7251 25.6397C66.4548 25.8308 66.4503 26.0702 66.7012 26.2995C66.8125 26.4013 66.9317 26.4952 67.0357 26.6039C67.7457 27.3456 67.4958 28.3839 66.5297 28.7712C66.2633 28.8781 66.2224 28.6945 66.1158 28.5418C65.8257 28.1266 65.3251 27.6366 64.9526 27.9766C64.472 28.4154 64.9803 28.9365 65.3626 29.3057C65.6439 29.5773 65.9751 29.9043 65.9038 30.2572C65.7403 31.0642 66.4488 31.555 66.4938 32.2699C66.5142 32.5922 66.8218 32.6404 67.0779 32.7121C67.829 32.9222 68.5283 33.3565 69.3584 33.2258C69.5011 33.2034 69.7109 33.2613 69.7214 33.4162C69.7363 33.636 69.5101 33.5726 69.3778 33.5847C68.431 33.6705 67.4618 33.5095 66.6102 33.2349C65.9536 33.0232 65.3981 32.2612 64.9715 31.6253C64.6173 31.0956 64.2288 30.5901 63.8085 30.112C63.6856 29.9724 63.4559 29.8842 63.6044 29.6729C63.7719 29.4346 64.0164 29.5283 64.1901 29.6827C64.4423 29.9068 64.6624 30.1676 64.899 30.4098C64.9775 30.4901 65.0897 30.5779 65.1846 30.4971C65.2959 30.4025 65.1768 30.2996 65.1185 30.2174C64.5023 29.3474 64.2712 28.3822 64.3558 27.3186C64.3874 26.9221 64.3231 26.5251 63.74 26.6522C63.2383 26.7615 63.2515 26.2784 63.0773 26.0296C62.346 24.9855 62.0744 24.9587 61.135 25.8052C60.9193 25.9995 60.6828 26.1704 60.4469 26.3393C59.6355 26.9204 59.4216 27.7811 59.8385 28.7367C59.9239 28.9325 60.1331 29.1493 59.902 29.3476C59.6891 29.5304 59.5096 29.2991 59.3067 29.2292C58.3705 28.9063 58.0179 28.1193 57.8892 27.2724C57.6973 26.011 56.7563 25.2818 56.0837 24.3577C55.9111 24.1204 55.6533 24.0702 55.3828 24.0655C55.0449 24.0595 54.7042 24.0293 54.3697 24.0623C54.1614 24.0829 53.9632 24.0523 53.7679 24.0092C53.4346 23.9357 53.237 24.3677 53.5088 24.5755C53.6384 24.6747 53.7791 24.765 53.899 24.8724C54.1149 25.0658 53.8926 25.183 53.8299 25.347C53.4331 26.3845 52.4437 26.6516 51.5936 27.0457C51.062 27.292 50.5586 27.6645 49.9368 27.7014C49.8214 27.7082 49.7065 27.7695 49.7065 27.9025C49.7065 28.0821 49.8473 28.1688 49.9972 28.1824C50.378 28.2171 50.7135 28.0075 51.0777 27.9489C51.585 27.8675 51.8297 28.2146 51.6035 28.68C51.1573 29.5984 50.5835 30.4456 49.7616 31.0913C48.503 32.0803 48.3831 32.4842 48.8551 33.9654C49.225 35.1262 49.1816 35.3013 48.1784 36.0692C47.7957 36.3623 47.4676 36.6309 47.658 37.1855C47.7333 37.4049 47.7518 37.7048 47.5717 37.8301C46.852 38.3317 46.6164 39.1659 46.1646 39.8444C45.4382 40.9351 44.3249 40.8827 43.2539 40.9649C42.9182 40.9907 42.6651 40.6548 42.6311 40.3923C42.5086 39.4474 42.0442 38.5874 41.7224 37.7542C41.2272 36.472 40.8557 35.3666 41.3518 34.0146C41.4941 33.6265 41.3066 32.9855 41.0535 32.6086C40.6295 31.977 40.4279 31.3407 40.4475 30.5977C40.4537 30.361 40.3261 30.0662 40.0897 30.1009C39.4449 30.1955 38.9218 29.5962 38.3817 29.7189C37.7755 29.8566 37.1119 29.7362 36.5549 30.0858C36.1807 30.3207 35.8497 30.2262 35.509 30.0003C34.6535 29.433 34.1688 28.5049 33.4224 27.8317C33.3441 27.761 33.2969 27.6223 33.3156 27.518C33.5722 26.0841 33.0813 24.4351 34.4223 23.3101C35.0742 22.7632 35.3316 21.925 35.9588 21.3645C36.2222 21.1291 36.2343 20.8104 35.834 20.6528C35.5671 20.5476 35.2888 20.3963 35.3757 20.1055C35.5204 19.6209 35.2417 19.1101 35.4851 18.6666C35.7037 18.2688 36.128 18.3409 36.4998 18.3609C37.6076 18.4205 37.7088 18.3347 37.512 17.1948C37.4287 16.7119 37.5426 16.4867 37.9515 16.1882C38.4257 15.8417 38.8789 15.439 39.361 15.0954C40.1365 14.5424 40.2241 14.3275 39.6703 13.4877C39.497 13.2249 39.3845 12.9679 39.3162 12.672C39.126 11.8476 39.2541 11.4929 40.0254 11.1272C40.5635 10.8722 40.967 10.5384 41.2037 9.98071C41.6148 9.01175 42.4068 8.46253 43.3443 8.0984C43.7291 7.94894 44.131 7.84471 44.5184 7.70128C45.2086 7.44571 45.7981 7.32753 46.4239 7.99568C46.8357 8.43539 47.6216 8.36773 48.1668 8.72433C48.3521 8.84571 48.6401 8.86663 48.7561 9.02608C49.21 9.64937 49.5427 9.97204 49.8005 8.89377C49.8597 8.6463 50.2517 8.56375 50.4632 8.81781C50.7845 9.204 51.0738 9.11353 51.4384 8.90112C52.05 8.5449 52.7594 8.72546 53.418 8.59597C54.117 8.45858 53.6584 8.15456 53.5684 7.89239L53.5809 7.87675C54.1308 7.9904 54.6781 8.11989 55.2315 8.21111C55.5244 8.25936 55.7308 8.26652 55.8218 7.80381C56.0192 6.79942 56.4662 6.61 57.5591 6.71385C57.9503 6.75098 58.3283 6.68294 58.7245 6.85954C58.9533 6.96151 59.3637 6.91665 59.4272 6.50653C59.5157 5.9345 59.8055 6.0082 60.2325 6.13448C60.6273 6.25114 61.1662 6.45074 61.1606 5.64651C61.1591 5.4358 61.4173 5.39735 61.5986 5.35739C62.3953 5.18211 63.1383 4.81307 63.9972 4.85171C64.7858 4.88714 64.9986 4.35884 64.5747 3.60023C64.8071 3.41439 64.9409 3.1575 65.0658 2.8942ZM39.7938 18.5579C38.9624 18.706 38.3983 19.2121 38.0596 19.9413C37.8941 20.2977 37.7499 20.6174 37.384 20.7928C37.262 20.8513 37.0147 20.8177 37.0446 20.9783C37.068 21.1034 37.3175 21.0772 37.4513 21.0301C38.1215 20.7943 38.7885 20.5736 39.5069 20.5107C39.8993 20.4762 40.2516 20.5331 40.5936 20.6911C40.9298 20.8464 40.8867 21.1671 40.9052 21.4717C40.9197 21.7084 41.1034 21.9058 41.3382 21.918C42.0905 21.957 42.8074 22.6007 43.6045 22.0398C43.7274 21.9533 43.9947 21.9712 44.1445 22.0453C44.9734 22.4559 45.8601 22.171 46.7121 22.2891C47.1294 22.347 47.2777 21.9348 47.3576 21.6291C47.4553 21.2552 47.1546 21.2476 46.866 21.2275C46.6161 21.2099 46.3568 20.9988 46.1297 21.038C45.3474 21.173 45.003 20.8452 44.9535 20.0876C44.9436 19.9345 44.8515 19.7886 44.663 19.8148C44.5362 19.8325 44.5472 19.973 44.4992 20.0661C44.2222 20.604 43.5051 20.6963 43.1622 20.2387C43.0581 20.1 43.049 19.7319 42.8978 19.8084C42.1191 20.2027 41.7747 19.4731 41.2558 19.2198C40.9151 19.0534 40.7033 18.9923 40.6691 19.4914C40.651 19.757 40.5038 20.0923 40.207 20.0041C39.7805 19.8774 40.159 19.579 40.1773 19.3538C40.2055 19.0163 40.4475 18.5669 39.7938 18.5579ZM42.7652 14.4231C43.2843 14.4504 43.2414 14.4229 43.4522 14.0876C43.9474 13.3 43.7511 12.5214 43.4926 11.7369C43.4199 11.5162 43.4489 11.1086 43.048 11.2527C42.7428 11.3626 42.5517 11.7211 42.7495 11.9923C43.4181 12.9098 42.5385 13.3527 42.1787 13.9076C41.9538 14.2546 41.5018 14.6065 41.12 13.9511C41.0641 13.8552 40.9354 13.7776 40.845 13.868C40.7802 13.9329 40.7544 14.0804 40.7726 14.1798C40.8917 14.8308 41.4 14.692 41.8345 14.6932C42.1696 14.6941 42.3819 14.2584 42.7652 14.4231ZM48.9414 19.0032C48.783 18.3803 47.9073 18.4342 47.7779 17.7195C47.7484 17.5565 47.5276 17.9698 47.3705 18.0897C47.1217 18.2795 46.8705 18.3362 46.7164 18.0241C46.5903 17.7687 46.4547 17.6153 46.2354 17.8485C45.9847 18.115 45.6879 18.3901 45.7361 18.8204C45.7667 19.0939 45.9752 19.25 46.2042 19.1996C46.923 19.0417 47.5887 19.1431 48.2673 19.4126C48.5516 19.5253 48.863 19.39 48.9414 19.0032ZM48.2329 24.9159C47.9978 24.9672 47.9886 25.1397 47.9763 25.3283C47.94 25.8783 48.3319 26.1981 48.6201 26.5726C48.7509 26.7425 48.8852 27.0461 49.1013 26.9532C49.4132 26.819 49.2167 26.5099 49.1577 26.2765C49.0458 25.8332 48.7219 25.5091 48.495 25.1306C48.4431 25.0435 48.3306 24.9934 48.2329 24.9159ZM-8 15.1932C-7.06064 14.6119 -6.10951 14.0561 -5.05807 13.698C-4.92395 13.6524 -4.73754 13.5685 -4.75211 13.4049C-4.76892 13.2155 -4.99549 13.2979 -5.11429 13.2274C-5.59826 12.9402 -6.09998 12.678 -6.55873 12.354C-7.12545 11.9537 -7.09912 11.6223 -6.51559 11.2637C-6.38969 11.1862 -6.24157 11.1461 -6.10446 11.0865C-5.94737 11.0181 -5.62759 11.0652 -5.69035 10.8313C-5.74545 10.6259 -6.01873 10.82 -6.19449 10.81C-6.34224 10.8017 -6.50102 10.8102 -6.6342 10.7576C-6.89103 10.6562 -7.11761 10.463 -7.07166 10.1682C-7.01319 9.79298 -6.68295 9.76396 -6.37344 9.76038C-6.23559 9.75869 -6.03797 9.92172 -5.9767 9.74756C-5.91973 9.58585 -6.15583 9.56003 -6.27481 9.48219C-7.16374 8.8998 -7.16038 8.75731 -6.26491 8.23278C-6.03834 8.10009 -5.82615 7.93706 -5.58836 7.83095C-4.91237 7.52939 -4.2771 7.34676 -3.47932 7.62985C-2.61468 7.93669 -1.64225 7.91878 -0.73016 8.10858C0.40141 8.34398 1.47582 8.34945 2.62981 8.05354C3.73821 7.76932 4.92638 7.98079 6.03815 8.37527C6.17171 8.42258 6.34299 8.54169 6.44685 8.38526C6.5408 8.24371 6.42611 8.09011 6.3004 8.00473C6.11268 7.8775 5.94102 7.77064 5.89339 7.50677C5.83941 7.20785 5.6642 7.14113 5.43576 7.38898C5.16491 7.68281 4.83896 7.67753 4.50648 7.53146C4.16615 7.382 3.90595 7.16261 4.14149 6.74834C4.27337 6.51633 4.41776 6.30448 4.40188 6.01819C4.37946 5.61654 4.72745 5.52815 4.92582 5.65669C5.56408 6.06983 6.36429 5.84083 7.01263 6.34632C7.54573 6.7621 8.28187 6.88405 8.98513 6.4515C9.39102 6.20195 9.81933 6.14673 9.7306 6.8831C9.69623 7.16902 9.79131 7.48114 10.0013 7.59328C10.5777 7.90106 11.0613 8.13835 10.2407 8.74054C10.0687 8.86681 10.1966 9.10467 10.4107 9.16593C10.6659 9.23887 11.0318 9.28957 11.0611 8.96124C11.0955 8.57656 11.2277 8.36773 11.5253 8.14589C12.0107 7.78402 11.9291 7.56313 11.3056 7.55653C10.799 7.55106 10.6255 7.02145 10.2443 6.81054C10.6883 6.72987 10.8627 6.19253 11.3415 6.15936C11.602 6.14126 11.8602 6.08434 12.1189 6.04137C12.488 5.98011 12.7407 5.79465 12.7951 5.39471C12.8227 5.19191 12.8081 5.00494 12.5707 4.95726C12.2321 4.8894 11.9343 4.68623 11.6288 5.18098C11.1973 5.87928 10.3423 5.29482 9.7448 5.61466L9.58995 5.20095C9.68353 5.10069 9.69399 5.00061 9.58958 4.90053C9.66635 4.49832 9.37701 4.13569 9.57034 3.68466C9.8946 2.92812 9.97604 2.85085 10.6298 3.26889C10.8248 3.39366 11.0744 3.53426 10.9982 3.77645C10.896 4.10025 10.6242 3.82583 10.4299 3.83903C10.1888 3.85542 9.95662 3.87729 9.954 4.18262C9.95139 4.48305 10.1712 4.53639 10.42 4.53488C10.6821 4.53337 10.9449 4.55938 11.2061 4.54525C11.6878 4.51924 11.9693 4.35432 11.5821 3.8509C11.4136 3.6317 11.1973 3.3897 11.475 3.16843C11.7642 2.93792 11.9648 3.27285 12.1049 3.45114C12.2448 3.62925 12.7355 3.62906 12.445 4.11854C12.357 4.26687 12.8227 4.36808 13.0605 4.42726C13.1742 4.45553 13.2861 4.38542 13.3145 4.25744C13.3721 3.99754 13.2493 3.82433 13.0293 3.70653C12.9944 3.68871 12.961 3.66817 12.9294 3.64509C11.5397 2.6145 11.5563 2.29126 13.0485 1.40505C13.3067 1.25136 13.5865 1.13799 13.8783 1.06881C15.4058 0.701277 16.9713 0.595166 18.5217 0.412156C19.1696 0.335635 19.8561 0.559543 20.5207 0.673571C20.7732 0.716921 21.2146 0.822091 21.2208 0.921418C21.2389 1.21016 20.8414 1.19961 20.6638 1.38394C20.5629 1.48873 20.3748 1.56337 20.4751 1.7394C20.5896 1.94013 20.8431 1.94974 20.9525 1.8016C21.6046 0.920098 22.5141 1.14306 23.4086 1.0869C24.1365 1.04129 24.8717 0.944599 25.6198 0.684879C26.4436 0.398773 27.4261 0.315844 28.3516 0.241019C28.5371 0.226129 28.7756 0.33243 28.9053 0.249123C30.0249 -0.469348 30.9611 0.599878 32.0064 0.548989C32.1309 0.542958 32.2269 0.649257 32.187 0.775347C32.1571 0.869585 32.0603 1.00491 31.9843 1.01113C31.462 1.05429 30.9372 1.0656 30.4134 1.09406C30.3054 1.0999 30.199 1.13571 30.0918 1.15777C30.1553 1.34266 30.3181 1.27952 30.4364 1.27933C31.5551 1.2767 32.6717 1.43615 33.7939 1.30044C34.0665 1.26746 34.4615 1.22826 34.5151 1.64196C34.5573 1.96746 34.2144 2.02909 33.9914 2.15254C33.1897 2.59659 32.2957 2.98712 32.9099 4.19902C32.9866 4.35036 32.7873 4.49021 32.7907 4.60782C32.8209 5.65292 31.9156 6.46978 32.1089 7.55936C32.1633 7.86582 31.9725 8.18547 31.6638 8.2816C30.9893 8.49156 30.4646 9.09148 29.6943 9.04304C29.6214 9.03852 29.5312 9.04361 29.4748 9.08262C28.372 9.84369 26.9035 10.2048 26.5342 11.7746C26.3939 12.3708 26.048 12.4452 25.5203 12.2929C24.6844 12.0517 24.271 11.4099 23.8511 10.7171C23.4161 9.99918 23.2274 9.34931 23.8937 8.67513C23.9978 8.56996 23.9905 8.43803 23.845 8.30063C23.5127 7.98701 22.9254 6.95944 22.8372 6.61773C22.567 5.56943 21.5325 4.71356 20.5076 4.98986C19.3751 5.29519 18.9675 4.5345 18.3988 3.93251C18.1675 3.68787 18.3702 3.51673 18.5792 3.41138C18.8782 3.26041 19.2305 3.26135 19.5202 3.05271C19.755 2.88364 19.7709 2.73927 19.6512 2.49048C19.5249 2.22793 19.3702 2.32029 19.1991 2.38946C18.1813 2.80071 17.278 3.30451 16.9438 4.49926C16.832 4.89977 16.5185 5.22659 16.4158 5.68534C16.3274 6.08001 15.7917 5.99011 15.4305 6.04929C15.2988 6.07096 15.0707 5.94525 15.0591 6.1292C15.0506 6.26566 15.3242 6.20044 15.4415 6.26848C16.2533 6.73854 17.2601 6.45244 18.0704 7.04444C18.7155 7.51582 19.4758 7.76291 19.7898 8.64912C19.9429 9.08168 20.5367 9.23811 20.9839 9.42772C21.1929 9.5163 21.4961 9.58472 21.2678 9.85745C21.0891 10.071 21.0043 10.5831 20.5261 10.3286C20.3651 10.2429 20.2452 10.0798 20.103 9.95621C20.0205 9.8844 19.9086 9.78846 19.8169 9.86951C19.7156 9.95885 19.8142 10.07 19.8847 10.1509C19.9837 10.2647 20.1047 10.3611 20.1925 10.4822C20.3528 10.7035 20.7727 10.9105 20.4441 11.2152C20.1962 11.4454 19.8841 11.8157 19.4644 11.6171C18.6375 11.226 17.8967 10.5961 16.8837 10.7778C16.7877 10.7949 16.6934 10.6666 16.6917 10.5431C16.6896 10.405 16.7871 10.3484 16.9091 10.3386C17.0957 10.3235 17.2931 10.3511 17.4676 10.2987C17.9465 10.1547 18.2407 9.55739 18.0702 9.12691C17.872 8.62688 16.6713 8.04544 16.1029 8.11122C15.7 8.15796 15.963 8.31797 15.9357 8.4908C15.859 8.97783 16.2436 9.74964 15.2162 9.79129C14.8514 9.80618 15.1402 10.1094 15.2872 10.2468C15.5543 10.4966 16.1791 10.536 16.1059 10.8997C16.0362 11.2465 15.4271 10.7423 15.1184 11.0955C14.9898 11.2426 14.7502 11.2578 14.5967 11.1314C13.9941 10.6353 13.6302 11.1502 13.2454 11.4578C12.1008 12.373 12.148 12.8789 13.4769 13.525C13.7774 13.6711 14.0544 13.8908 14.3761 13.9698C15.214 14.1758 15.9279 14.4909 16.1384 15.4582C16.1756 15.6286 16.384 15.9373 16.636 15.6987C16.7746 15.5673 16.7756 15.3483 16.6685 15.1898C16.3403 14.7035 16.4023 14.3809 16.9653 14.1323C17.2166 14.0214 17.1402 13.7295 17.035 13.5269C16.848 13.1669 16.9198 12.7871 16.9026 12.4134C16.8589 11.455 17.3923 11.1042 18.2476 11.5596C18.5728 11.7328 18.947 11.936 19.1291 12.2317C19.4347 12.7279 19.6749 12.9852 20.2663 12.6152C20.6507 12.3747 20.9241 12.744 21.0484 13.0444C21.3201 13.7016 21.8172 14.1249 22.323 14.5786C22.7082 14.9241 23.3177 15.2343 22.9549 15.9737C22.8376 16.2125 23.1025 16.2653 23.2476 16.364C23.4998 16.5357 23.7357 16.7259 23.7917 17.0535C23.8175 17.2041 23.7209 17.4696 23.7026 17.4553C23.2898 17.1328 22.7969 17.4398 22.3908 17.2755C22.117 17.1647 22.1017 16.8718 22.2042 16.586C22.3617 16.1471 22.1336 16.1584 21.8093 16.2394C21.5938 16.2933 21.3562 16.3278 21.1397 16.2948C20.3593 16.1763 20.4032 16.4439 20.6404 17.0719C20.8509 17.6293 21.0665 17.5857 21.4591 17.362C21.6427 17.2574 21.836 17.281 21.922 17.4983C22.0036 17.7046 21.8762 17.9461 21.7202 17.9715C21.135 18.0673 20.6572 18.7788 19.962 18.2786C19.7528 18.1282 19.4012 18.2424 19.3654 18.4103C19.2234 19.0768 18.6668 19.2522 18.2077 19.5581C18.121 19.6158 18.0577 19.734 18.0198 19.8376C17.6819 20.757 17.199 21.5439 16.3984 22.1619C15.9916 22.4759 15.9653 23.0219 16.3827 23.4733C16.5876 23.6948 16.6455 24.0005 16.3695 24.16C16.096 24.3177 16.0575 23.9217 15.8933 23.7992C15.7183 23.6686 15.5704 23.479 15.4594 23.2866C15.1324 22.7196 14.6301 22.6586 14.0951 22.8316C13.7677 22.9375 13.4514 23.0176 13.1102 23.0178C12.4385 23.0182 11.8389 22.9846 11.9947 24.0454C12.0528 24.441 11.492 24.8854 12.0049 25.3905C12.3785 25.7582 12.7161 25.9328 13.1873 25.6359C13.3463 25.5358 13.495 25.4184 13.6558 25.3213C13.89 25.1798 14.1814 25.0712 14.4048 25.2109C14.7476 25.4254 14.4119 25.6951 14.3213 25.8811C14.0299 26.4807 14.0873 26.7913 14.8331 26.785C15.231 26.7818 15.4531 27.0502 15.4622 27.4449C15.4708 27.8147 15.3154 28.2797 15.7841 28.4225C16.2729 28.5714 16.8934 28.6219 17.2748 28.3143C18.096 27.6522 18.9049 27.7925 19.7877 28.0716C20.0251 28.1466 20.2717 28.182 20.5199 28.1984C21.9519 28.2938 22.7399 29.6584 24.0545 29.9807C24.5028 31.5461 26.1049 31.3041 27.1364 31.9542C27.4037 32.1227 27.747 32.2092 28.0361 32.3892C28.5937 32.7367 28.7474 33.1829 28.3244 33.7066C27.9013 34.2304 27.7918 34.8439 27.6118 35.4642C27.3157 36.4837 27.1334 37.6612 25.6809 37.754C25.2894 37.779 25.086 38.1507 24.9702 38.5475C24.5055 40.1397 24.3375 40.3076 22.6327 40.9722C22.5005 41.0239 22.4622 41.0766 22.5055 41.1991C22.7734 41.9557 22.2599 42.1617 21.7165 42.2129C21.2086 42.261 21.1827 42.6871 20.9811 42.9646C20.6187 43.4635 20.5343 44.1429 19.9941 44.5391C19.9605 44.5638 19.9982 44.783 20.0627 44.833C20.412 45.1034 20.2571 45.2778 20.035 45.5593C19.2983 46.4942 19.3116 46.5454 19.9732 47.518C20.0789 47.6733 20.2833 47.789 19.9513 47.9017C19.054 48.2063 18.2116 47.7852 17.8716 46.8838C17.6064 46.1807 17.5907 45.4125 17.776 44.7553C18.1628 43.3828 18.1064 41.9566 18.4352 40.5649C18.6868 39.4995 18.8898 38.3141 18.9066 37.1542C18.9173 36.4284 18.6304 35.8696 18.0607 35.5298C17.4301 35.1536 17.0767 34.6251 16.8391 33.9665C16.7759 33.7916 16.6625 33.6356 16.5828 33.466C16.3723 33.0183 15.5358 32.8704 16.0159 32.0778C16.2755 31.6492 16.1614 31.0256 16.6398 30.6712C16.9478 30.4432 16.9635 30.1115 16.9812 29.7588C17.0003 29.3821 16.9102 29.2268 16.4995 29.1864C15.7566 29.1137 14.9779 29.0328 14.7948 28.0535C14.755 27.8407 14.5025 27.8173 14.3353 27.7832C13.4724 27.6062 12.7917 27.0282 11.7943 26.9914C10.9524 26.9605 9.81783 26.5295 9.39065 25.3981C9.20199 24.8984 8.99092 24.5352 8.21033 24.6947C7.57188 24.8251 7.15758 24.0148 6.94091 23.4277C6.603 22.5127 6.12127 21.81 5.34105 21.18C4.4977 20.499 4.26608 19.3802 4.28737 18.2929C4.30194 17.5499 4.35779 16.8467 3.56581 16.4424C3.39714 16.3563 3.32802 16.2178 3.30468 15.9954C3.21184 15.1133 3.14011 15.0639 2.21177 14.9895C1.9131 14.9655 1.92486 14.7096 1.81503 14.523C1.13979 13.3767 0.282238 12.528 -1.15062 12.3717C-1.6699 12.315 -1.98875 12.5853 -2.40323 12.6661C-2.84312 12.7519 -3.36669 12.5449 -3.07754 13.3699C-2.99218 13.6138 -3.3708 13.983 -3.6805 13.882C-4.24666 13.6971 -4.51638 14.0032 -4.80665 14.3662C-4.87576 14.4527 -4.96393 14.5859 -5.04742 14.5891C-6.07327 14.6285 -6.92129 15.315 -7.93425 15.3898L-8 15.1932ZM13.3256 6.73138C13.1416 6.76267 12.9578 6.79923 12.8302 6.95359C12.6847 7.12963 12.7394 7.31434 12.861 7.46173C13.2548 7.93876 13.5475 8.52982 14.244 8.67193C14.3792 8.69945 14.2089 9.11466 14.5005 9.0421C14.6428 9.00685 14.7894 8.79387 14.841 8.63122C14.9075 8.42144 14.7183 8.27519 14.5419 8.23127C13.9377 8.08087 13.7243 7.64907 13.6595 7.0844C13.6373 6.89158 13.579 6.71216 13.3256 6.73138Z" stroke="#155dfc" stroke-width="2" mask="url(#path-1-inside-1_792_336)"/>
</svg>
